<svg width="298" height="298" viewBox="0 0 298 298" fill="none" xmlns="http://www.w3.org/2000/svg">
<path d="M282.063 131.697L281.607 131.444C245.739 111.063 157.129 102.511 83.9987 112.351L83.6482 112.4V112.049C83.746 59.0988 97.2454 18.4015 118.872 5.84665C128.23 0.40893 138.771 0.70242 149.36 6.6619C183.386 2.13726 215.675 11.5779 240.448 33.2961C253.618 44.8945 264.033 59.2855 270.936 75.4202C278.379 92.5404 282.129 111.291 282.096 131.216L282.063 131.697ZM147.868 107.663C202.6 107.663 255.472 116.134 281.452 130.653C281.452 111.014 277.686 92.4997 270.349 75.624C263.473 59.5734 253.108 45.256 240.008 33.7119C215.382 12.1322 183.182 2.7324 149.336 7.30595H149.238L149.148 7.24889C138.551 1.24864 128.491 0.946991 119.174 6.3521C97.7916 18.7928 84.4226 59.1314 84.2596 111.699C105.351 108.962 126.6 107.614 147.868 107.663Z" fill="#F86917" fill-opacity="0.21"/>
<path d="M216.05 17.684C198.002 7.42816 153.33 3.13179 116.484 8.07221L116.402 7.46893C153.362 2.4959 198.197 6.84118 216.352 17.1541L216.05 17.684Z" fill="#F86917" fill-opacity="0.21"/>
<path d="M263.591 62.2538C232.663 44.7096 156.15 37.2908 93.0307 45.7776L92.9492 45.1743C156.175 36.6712 232.867 44.0982 263.893 61.7239L263.591 62.2538Z" fill="#F86917" fill-opacity="0.21"/>
<path d="M231.098 114.952H230.487C230.576 65.7349 216.278 26.7659 192.23 10.6973C179.408 2.13719 164.604 0.91431 149.417 7.28142L149.148 6.7189C164.539 0.311028 179.538 1.50945 192.54 10.1919C216.808 26.3664 231.188 65.5311 231.098 114.952Z" fill="#F86917" fill-opacity="0.21"/>
<path d="M160.137 108.087H159.525C159.648 38.7909 156.004 1.99046 152.327 1.51762C151.968 1.4687 150.958 1.90894 149.596 7.07763L149.001 6.92273C150.126 2.65897 151.21 0.743131 152.409 0.906181C157.879 1.6236 160.234 55.2508 160.137 108.087Z" fill="#F86917" fill-opacity="0.21"/>
<path d="M16.6157 167.397L16.1592 167.144C4.93409 160.76 -0.274914 153.635 1.09459 146.543C2.39073 139.89 9.36869 133.556 20.9524 128.004C32.5769 82.3252 63.5538 42.6225 103.416 21.5646C107.924 14.529 113.109 9.18908 118.905 5.84655C128.287 0.392522 138.86 0.702314 149.482 6.73517L150.297 7.18356L149.392 7.30585C133.477 9.50605 118.074 14.4928 103.889 22.0374C91.5961 41.3181 84.3899 73.3982 84.3247 112.049V112.318H84.0638C57.4807 115.889 35.9681 121.531 21.5475 128.354C18.3476 140.935 16.7049 153.861 16.6564 166.842L16.6157 167.397ZM20.7649 128.729C9.63769 134.126 2.94505 140.241 1.69782 146.665C0.393527 153.382 5.34168 160.182 16.0124 166.353C16.0929 153.667 17.6884 141.037 20.7649 128.729ZM102.772 22.5999C63.6435 43.6171 33.2209 82.7165 21.6616 127.669C36.0985 120.903 57.4318 115.327 83.6155 111.78C83.754 73.7406 90.7809 42.0437 102.772 22.5999ZM132.934 2.52848C128.084 2.55899 123.331 3.89371 119.174 6.39277C113.736 9.55594 108.821 14.5453 104.5 21.0673C118.205 13.8847 133.024 9.06941 148.333 6.82485C143.63 4.12279 138.324 2.64547 132.901 2.52848H132.934Z" fill="#F86917" fill-opacity="0.21"/>
<path d="M82.1727 35.6929C76.4664 32.4319 73.7926 28.7877 74.5018 25.1435C75.9854 17.5209 92.0364 10.7462 116.402 7.46887L116.484 8.07216C92.3869 11.3332 76.5398 17.8552 75.105 25.2576C74.4529 28.6246 77.0044 32.0487 82.4417 35.1548L82.1727 35.6929Z" fill="#F86917" fill-opacity="0.21"/>
<path d="M34.4436 93.0785C24.7266 87.5592 20.2268 81.3959 21.4007 75.2489C23.9114 62.2946 51.3179 50.7914 92.9329 45.1743L93.0144 45.7776C51.6847 51.3376 24.4739 62.6451 21.9795 75.3631C20.8464 81.2247 25.2402 87.1679 34.7126 92.5404L34.4436 93.0785Z" fill="#F86917" fill-opacity="0.21"/>
<path d="M26.1614 126.104H25.55C25.6234 85.3416 40.9651 49.2668 67.6297 27.1409C90.2592 8.3901 119.28 1.10991 149.352 6.70253L149.246 7.30582C119.353 1.74581 90.5119 8.93632 68.021 27.6056C41.495 49.601 26.2348 85.521 26.1614 126.104Z" fill="#F86917" fill-opacity="0.21"/>
<path d="M1.89337 145.801H1.28198C1.3472 108.853 16.102 74.1319 42.8563 48.0439C71.0616 20.5047 108.886 5.84649 149.335 6.71881V7.33025C108.951 6.39271 71.3306 21.0672 43.2475 48.4597C16.6482 74.4335 1.95858 108.992 1.89337 145.801Z" fill="#F86917" fill-opacity="0.21"/>
<path d="M150.2 190.387C95.1423 190.387 41.9924 181.818 16.1593 167.144L16.0044 167.054V166.875C16.1511 88.4151 75.9284 16.5589 149.254 6.70251H149.36L149.45 6.75143C185.424 27.1898 214.566 107.606 214.42 186.017V186.286H214.159C192.953 189.062 171.586 190.432 150.2 190.387ZM16.6158 166.695C52.4838 186.971 140.841 195.498 213.808 185.732C213.89 107.671 184.951 27.7197 149.238 7.32211C76.3034 17.1866 16.8522 88.6352 16.6158 166.695Z" fill="#F86917" fill-opacity="0.21"/>
<path d="M149.865 47.4325C122.068 47.4325 95.2482 43.1035 82.2053 35.6929L82.5069 35.1548C100.555 45.4106 145.219 49.7233 182.073 44.7666L182.155 45.3699C171.449 46.7715 160.662 47.4605 149.865 47.4325Z" fill="#F86917" fill-opacity="0.21"/>
<path d="M150.183 113.191C102.642 113.191 56.7472 105.788 34.4275 93.1191L34.7291 92.5811C65.6571 110.158 142.17 117.552 205.29 109.057L205.371 109.669C187.073 112.056 168.637 113.233 150.183 113.191Z" fill="#F86917" fill-opacity="0.21"/>
<path d="M67.6297 183.098H67.0183C67.1243 104.679 103.995 25.5512 149.148 6.71887L149.384 7.28139C104.443 26.0322 67.7275 104.9 67.6297 183.098Z" fill="#F86917" fill-opacity="0.21"/>
<path d="M138.551 189.963H137.939C138.078 111.634 143.042 29.5215 149.001 6.92273L149.596 7.07762C143.645 29.6356 138.689 111.674 138.551 189.963Z" fill="#F86917" fill-opacity="0.21"/>
<path d="M213.808 186.351V186.001C213.955 107.786 184.951 27.5893 149.148 7.26514L148.333 6.81675L149.229 6.70261C183.255 2.12906 215.626 11.5941 240.391 33.2553C253.561 44.8537 263.976 59.2447 270.879 75.3793C278.297 92.4344 282.055 111.144 282.039 130.996C293.158 137.355 298.343 144.447 296.949 151.507C294.047 166.492 262.312 179.821 214.134 186.302L213.808 186.351ZM150.232 7.20807C185.79 28.3231 214.477 107.932 214.42 185.666C262.132 179.21 293.492 166.1 296.37 151.426C297.69 144.61 292.587 137.713 281.607 131.477L281.452 131.387V131.208C281.452 111.373 277.751 92.6871 270.349 75.6565C263.473 59.6059 253.108 45.2886 240.008 33.7445C215.602 12.3197 183.744 2.91985 150.232 7.20807Z" fill="#F86917" fill-opacity="0.21"/>
<path d="M182.122 45.3699L182.041 44.7666C206.137 41.5056 221.984 34.9836 223.419 27.5811C224.071 24.2223 221.528 20.7982 216.083 17.684L216.384 17.1541C222.09 20.4151 224.764 24.0511 224.055 27.7034C222.514 35.326 206.488 42.0926 182.122 45.3699Z" fill="#F86917" fill-opacity="0.21"/>
<path d="M205.395 109.628L205.314 109.016C246.66 103.456 273.871 92.1245 276.333 79.431C277.466 73.5694 273.072 67.6343 263.599 62.2537L263.901 61.7238C273.618 67.243 278.118 73.4063 276.944 79.5533C274.409 92.5076 246.97 104.027 205.395 109.628Z" fill="#F86917" fill-opacity="0.21"/>
<path d="M272.518 171.946H271.906C272.053 93.7713 217.028 19.9177 149.246 7.3058L149.352 6.70251C217.411 19.3634 272.664 93.4941 272.518 171.946Z" fill="#F86917" fill-opacity="0.21"/>
<path d="M296.786 152.274H296.174C296.321 74.132 230.43 9.09945 149.295 7.3059V6.69446C230.772 8.49616 296.932 73.7978 296.786 152.274Z" fill="#F86917" fill-opacity="0.21"/>
<path d="M148.708 291.356L148.618 291.307C112.652 270.868 83.5013 190.452 83.648 112.049V111.78H83.917C157.153 101.924 245.975 110.525 281.908 130.939L282.063 131.028V131.208C281.917 209.659 222.139 281.516 148.814 291.372L148.708 291.356ZM84.2594 112.318C84.186 190.37 113.117 270.322 148.83 290.72C221.764 280.847 281.207 209.39 281.452 131.354C245.559 111.079 157.226 102.592 84.2594 112.318Z" fill="#F86917" fill-opacity="0.21"/>
<path d="M263.322 205.501C232.394 187.933 155.881 180.538 92.7617 189.025L92.6802 188.422C155.914 179.919 232.598 187.346 263.632 204.971L263.322 205.501Z" fill="#F86917" fill-opacity="0.21"/>
<path d="M215.593 262.887C197.545 252.631 152.881 248.318 116.027 253.275L115.946 252.672C152.906 247.699 197.749 252.044 215.895 262.357L215.593 262.887Z" fill="#F86917" fill-opacity="0.21"/>
<path d="M148.887 291.323L148.651 290.76C193.632 272.01 230.34 193.142 230.487 114.952H231.098C230.951 193.371 194.073 272.491 148.887 291.323Z" fill="#F86917" fill-opacity="0.21"/>
<path d="M149.066 291.119L148.479 290.964C154.422 268.406 159.378 186.368 159.525 108.087H160.137C159.99 186.416 155.025 268.52 149.066 291.119Z" fill="#F86917" fill-opacity="0.21"/>
<path d="M132.127 292.472C104.305 292.472 78.325 282.909 57.6519 264.754C44.4826 253.155 34.0669 238.764 27.1641 222.63C19.746 205.583 15.9961 186.873 16.0043 167.022C4.88521 160.663 -0.299344 153.57 1.09462 146.51C4.00482 131.526 35.7398 118.188 83.9171 111.715L84.2595 111.666V112.017C84.1127 190.224 113.125 270.404 148.92 290.744L149.735 291.192L148.838 291.307C143.3 292.069 137.717 292.459 132.127 292.472ZM83.6481 112.375C35.9355 118.832 4.57544 131.941 1.69784 146.616C0.377249 153.431 5.48029 160.328 16.4608 166.565L16.6157 166.655V166.834C16.6157 186.669 20.3166 205.355 27.7266 222.377C34.5947 238.428 44.9542 252.746 58.0514 264.289C82.4661 285.681 114.299 295.081 147.844 290.809C112.285 269.719 83.591 190.126 83.6481 112.375Z" fill="#F86917" fill-opacity="0.21"/>
<path d="M34.2073 236.293C24.4985 230.782 19.9905 224.611 21.1644 218.472C23.6751 205.518 51.0897 194.015 92.6966 188.397L92.7781 189.001C51.4321 194.561 24.2213 205.901 21.7676 218.586C20.6263 224.448 25.0283 230.391 34.4926 235.764L34.2073 236.293Z" fill="#F86917" fill-opacity="0.21"/>
<path d="M81.7242 280.888C76.0179 277.627 73.3441 273.991 74.0452 270.347C75.5288 262.716 91.5797 255.949 115.946 252.672L116.027 253.275C91.9303 256.536 76.0831 263.099 74.6484 270.461C73.9962 273.828 76.5478 277.244 81.985 280.358L81.7242 280.888Z" fill="#F86917" fill-opacity="0.21"/>
<path d="M148.716 291.339C80.6727 278.687 25.4034 204.548 25.5501 126.104H26.1615C26.0147 204.27 81.0395 278.124 148.83 290.736L148.716 291.339Z" fill="#F86917" fill-opacity="0.21"/>
<path d="M148.765 291.348C67.2957 289.546 1.13549 224.244 1.28223 145.776H1.89361C1.74688 223.918 67.638 288.943 148.781 290.736L148.765 291.348Z" fill="#F86917" fill-opacity="0.21"/>
<path d="M165.183 296.068C159.375 295.955 153.697 294.331 148.708 291.356C143.212 292.097 137.673 292.47 132.127 292.472C104.305 292.472 78.325 282.91 57.652 264.754C44.4827 253.156 34.067 238.765 27.1642 222.63C19.7216 205.51 15.9718 186.759 16.0044 166.842V166.321L16.4527 166.573C52.3207 186.955 140.939 195.507 214.069 185.666L214.411 185.618V185.968C214.314 238.919 200.822 279.608 179.196 292.163C174.958 294.694 170.119 296.042 165.183 296.068ZM148.83 290.72L148.92 290.777C159.517 296.777 169.576 297.079 178.894 291.674C200.284 279.249 213.653 238.91 213.808 186.351C140.947 196.085 52.7854 187.599 16.6157 167.397C16.6157 187.036 20.3819 205.542 27.7267 222.418C34.5948 238.469 44.9543 252.787 58.0514 264.33C82.6781 285.91 114.886 295.31 148.732 290.736L148.83 290.72Z" fill="#F86917" fill-opacity="0.21"/>
<path d="M149.914 256.398C102.373 256.398 56.4781 248.995 34.1584 236.318L34.4601 235.788C65.3881 253.365 141.901 260.759 205.029 252.264L205.11 252.876C186.809 255.263 168.37 256.439 149.914 256.398Z" fill="#F86917" fill-opacity="0.21"/>
<path d="M149.409 292.636C121.611 292.636 94.7917 288.307 81.7488 280.888L82.0504 280.358C100.099 290.614 144.762 294.926 181.609 289.97L181.69 290.573C170.987 291.974 160.203 292.664 149.409 292.636Z" fill="#F86917" fill-opacity="0.21"/>
<path d="M129.706 295.383C121.062 295.36 112.626 292.735 105.495 287.85C81.284 271.675 66.8797 232.519 66.9775 183.098H67.6297C67.5319 232.315 81.8383 271.284 105.878 287.345C118.701 295.905 133.505 297.087 148.691 290.76L148.928 291.323C142.853 293.938 136.319 295.318 129.706 295.383Z" fill="#F86917" fill-opacity="0.21"/>
<path d="M145.798 297.144H145.667C140.189 296.426 137.841 242.799 137.939 189.971H138.551C138.42 259.267 142.072 296.06 145.741 296.541C146.099 296.541 147.11 296.141 148.48 290.972L149.066 291.127C147.982 295.22 146.947 297.144 145.798 297.144Z" fill="#F86917" fill-opacity="0.21"/>
<path d="M165.183 296.068C159.786 296.068 154.21 294.478 148.618 291.307L147.803 290.858L148.7 290.736C164.617 288.532 180.022 283.545 194.211 276.004C206.496 256.724 213.702 224.644 213.776 186.001V185.748H214.045C240.62 182.177 262.14 176.536 276.553 169.712C279.753 157.131 281.395 144.205 281.444 131.224V130.702L281.9 130.955C293.142 137.289 298.326 144.415 296.973 151.507C295.685 158.16 288.707 164.494 277.123 170.038C265.523 215.692 234.522 255.419 194.651 276.477C190.144 283.513 184.959 288.853 179.204 292.195C174.96 294.716 170.118 296.053 165.183 296.068ZM149.694 291.217C159.974 296.793 169.788 296.924 178.87 291.673C184.307 288.51 189.231 283.521 193.543 277.04C179.836 284.197 165.02 288.99 149.719 291.217H149.694ZM214.395 186.27C214.289 224.309 207.27 255.998 195.279 275.442C234.408 254.425 264.822 215.333 276.382 170.38C261.969 177.147 240.636 182.723 214.42 186.27H214.395ZM282.055 131.705C281.972 144.388 280.374 157.016 277.295 169.321C288.422 163.924 295.123 157.809 296.362 151.385C297.674 144.676 292.726 137.868 282.063 131.705H282.055Z" fill="#F86917" fill-opacity="0.21"/>
<path d="M205.126 252.876L205.045 252.264C246.383 246.704 273.594 235.372 276.055 222.679C277.189 216.817 272.795 210.882 263.322 205.502L263.632 204.972C273.341 210.491 277.849 216.654 276.675 222.801C274.14 235.756 246.733 247.275 205.126 252.876Z" fill="#F86917" fill-opacity="0.21"/>
<path d="M181.666 290.573L181.584 289.969C205.689 286.708 221.528 280.186 222.963 272.784C223.615 269.425 221.071 266.001 215.626 262.887L215.928 262.357C221.634 265.618 224.308 269.254 223.598 272.906C222.09 280.529 206.031 287.295 181.666 290.573Z" fill="#F86917" fill-opacity="0.21"/>
<path d="M168.37 293.182C161.776 293.172 155.197 292.555 148.716 291.339L148.83 290.736C178.723 296.304 207.564 289.105 230.055 270.436C256.581 248.424 271.833 212.553 271.906 171.946H272.518C272.444 212.708 257.111 248.783 230.438 270.901C213.023 285.416 191.039 293.307 168.37 293.182Z" fill="#F86917" fill-opacity="0.21"/>
<path d="M152.246 291.38C151.088 291.38 149.931 291.38 148.765 291.38V290.769C189.067 291.657 226.721 277.04 254.812 249.615C281.403 223.641 296.093 189.082 296.158 152.306H296.769C296.704 189.254 281.949 223.967 255.236 250.055C227.862 276.771 191.391 291.38 152.246 291.38Z" fill="#F86917" fill-opacity="0.21"/>
<path d="M149.197 297.185C145.855 297.185 143.001 297.054 141.51 296.989C139.374 296.891 134.466 296.516 131.157 296.092C127.847 295.668 127.896 295.668 123.25 294.91C122.377 294.771 121.35 294.568 120.347 294.364L119.035 294.103C113.043 292.858 107.133 291.249 101.337 289.285C97.9626 288.086 94.0008 286.562 91.221 285.412C88.8815 284.434 85.8245 283.032 83.6317 281.923C80.2405 280.203 75.969 277.847 73.0343 276.118C70.0997 274.39 66.79 272.246 64.5809 270.648C58.2754 266.254 52.3153 261.383 46.7528 256.08C44.1117 253.552 41.1281 250.487 39.1391 248.261C36.7669 245.612 33.4328 241.65 31.028 238.478C26.2298 232.16 21.942 225.47 18.2052 218.472C14.7552 211.654 11.696 204.645 9.04254 197.479C7.60277 193.472 6.38092 189.39 5.38237 185.251C4.78728 182.911 4.22481 180.049 3.67864 177.294C3.43408 176.046 3.19767 174.848 2.96942 173.747C2.16169 169.487 1.63071 165.179 1.37982 160.85L1.33906 160.198C0.952031 155.472 0.818701 150.728 0.939627 145.988C0.99669 145.034 1.0456 143.991 1.09451 142.915C1.23309 139.963 1.39612 136.613 1.67329 133.947C2.06766 129.606 2.69901 125.289 3.56451 121.017C3.76016 120.202 3.95579 119.256 4.16774 118.31C4.79543 115.424 5.51279 112.163 6.23015 109.612C7.3388 105.682 8.94472 100.717 10.2409 97.2524C11.537 93.7876 13.2815 89.6135 14.6754 86.6541C15.7107 84.453 18.3845 78.9174 20.7975 74.9064C24.5065 68.7268 29.9112 61.1286 33.4083 56.498C35.2832 54.0523 37.9407 51.1337 40.2885 48.5901C41.1036 47.7748 41.8129 46.9596 42.4895 46.1443C44.938 43.5126 47.5287 41.017 50.25 38.6685C53.8205 35.5624 58.736 31.7062 62.119 29.0811C65.2827 26.6878 68.5844 24.4828 72.0072 22.4776C76.3766 19.9096 82.4252 16.673 87.0473 14.4311C89.7782 13.1022 93.9519 11.3739 98.2153 9.8086C101.517 8.58572 105.854 7.19164 108.992 6.33563C114.113 4.88945 119.308 3.71924 124.554 2.83005C127.334 2.32459 132.877 1.58272 136.977 1.26477C139.887 1.04465 142.17 0.906059 143.768 0.865296C148.219 0.751161 148.659 0.743009 153.403 0.865296C154.031 0.865296 159.729 1.00389 166.943 1.88436C171.182 2.39797 174.712 3.03386 174.859 3.06647C176.187 3.31105 178.062 3.66161 179.473 3.9551C180.508 4.17522 181.78 4.46871 182.953 4.77035L184.372 5.09645C185.896 5.44701 188.008 6.01768 190.641 6.78402C192.092 7.2161 194.097 7.852 196.754 8.73247C200.203 9.86567 204.181 11.3902 206.887 12.6131C208.893 13.518 211.11 14.5697 213.303 15.6539C216.275 17.0073 219.188 18.4937 222.041 20.1134L222.221 20.2193C226.667 22.7544 230.979 25.5163 235.141 28.4941C238.027 30.679 242.38 33.9808 245.453 36.5733C246.603 37.5434 250.573 40.9349 253.377 43.9105L253.907 44.4649C256.491 47.1797 259.711 50.5548 262.059 53.2696C264.089 55.6338 266.852 59.1476 268.939 62.0091C271.026 64.8706 273.83 69.1344 275.925 72.5014C278.142 76.1374 280.205 79.8386 281.427 82.4311C282.911 85.5699 285.161 90.3065 286.62 93.8936C287.721 96.6084 289.172 100.676 290.5 104.777C292.64 111.502 294.275 118.378 295.391 125.346C296.571 133.266 297.2 141.258 297.275 149.265C297.275 153.179 297.014 158.47 296.671 162.424C296.435 165.155 295.938 168.571 295.497 171.587C295.367 172.508 295.237 173.397 295.122 174.212C294.424 178.466 293.507 182.681 292.375 186.84C291.56 190.036 290.207 194.39 288.96 197.936C287.712 201.482 285.886 206.088 284.183 209.871C283.221 212.023 281.917 214.543 280.661 216.988C280.107 218.064 279.569 219.1 279.096 220.046C277.015 223.896 274.727 227.629 272.24 231.231C270.952 233.179 269.273 235.429 267.651 237.606C266.958 238.535 266.298 239.424 265.703 240.247C262.907 243.866 259.913 247.328 256.736 250.617C254.241 253.283 251.217 256.259 249.04 258.199C245.861 261.028 241.288 264.803 237.391 267.827C234.717 269.906 231.057 272.319 229.117 273.575C226.835 275.042 223.77 276.836 221.3 278.263L220.55 278.695C215.618 281.51 210.494 283.975 205.216 286.073C200.708 287.834 197.284 289.081 194.757 289.904C191.586 290.932 187.233 292.163 183.907 292.97C180.451 293.785 176.391 294.657 173.563 295.122L173.179 295.179C171.769 295.415 170.016 295.693 168.663 295.864C166.218 296.174 163.071 296.5 161.123 296.679C160.96 296.679 156.908 297.079 151.08 297.168L149.197 297.185ZM148.781 1.50119C147.395 1.50119 146.164 1.50119 143.751 1.59087C142.162 1.63163 139.887 1.77022 136.993 1.99034C132.918 2.30829 127.391 3.04202 124.627 3.54747C119.407 4.43954 114.237 5.60422 109.139 7.03675C106.008 7.852 101.696 9.27868 98.4028 10.4934C94.1638 12.0587 90.0064 13.7544 87.3 15.0914C82.6861 17.3334 76.6619 20.5536 72.3006 23.1135C68.8998 25.0905 65.6196 27.2684 62.4777 29.6355C59.0947 32.2606 54.1955 36.1086 50.6331 39.2065C47.9308 41.5388 45.3591 44.0182 42.9296 46.6335L40.7205 49.0792C38.3809 51.6065 35.7397 54.4762 33.8811 56.9382C30.3922 61.5607 25.0038 69.167 21.3029 75.2895C18.9062 79.2843 16.2406 84.8035 15.2135 86.9884C13.8276 89.907 12.0995 94.0403 10.7952 97.5133C9.49088 100.986 7.90128 105.91 6.80079 109.824C6.09158 112.359 5.37422 115.62 4.74652 118.49C4.54273 119.435 4.33893 120.357 4.14329 121.196C3.285 125.448 2.6564 129.742 2.26022 134.061C1.99121 136.686 1.82817 140.02 1.68959 142.964C1.64068 144.048 1.59177 145.091 1.53471 146.045C1.41532 150.761 1.54593 155.48 1.92599 160.182L1.96675 160.834C2.22183 165.135 2.75279 169.416 3.55635 173.65C3.7846 174.742 4.02102 175.949 4.26557 177.196C4.80359 179.951 5.36607 182.797 5.96115 185.12C6.95223 189.235 8.16591 193.293 9.59686 197.276C11.9527 203.439 15.4499 212.072 18.7269 218.195C22.4441 225.172 26.7187 231.838 31.5089 238.128C33.8567 241.266 37.2152 245.212 39.5792 247.854C41.552 250.063 44.5274 253.12 47.1523 255.639C52.6993 260.917 58.6371 265.768 64.9151 270.151C67.1161 271.732 70.4176 273.877 73.3278 275.589C76.238 277.301 80.5421 279.665 83.9251 281.377C86.1098 282.486 89.1423 283.88 91.4737 284.85C94.229 285.991 98.1908 287.508 101.558 288.706C107.324 290.667 113.204 292.276 119.165 293.524L120.486 293.785C121.481 293.981 122.508 294.184 123.364 294.323C127.969 295.081 127.969 295.081 131.246 295.505C134.523 295.929 139.398 296.32 141.534 296.394C143.311 296.467 146.979 296.63 151.104 296.573C156.908 296.483 160.935 296.108 161.098 296.092C163.039 295.905 166.177 295.587 168.623 295.277C169.959 295.106 171.712 294.82 173.114 294.592L173.497 294.535C176.31 294.07 180.353 293.231 183.801 292.391C187.103 291.576 191.448 290.361 194.602 289.334C197.113 288.518 200.529 287.271 205.029 285.518C210.276 283.428 215.372 280.977 220.281 278.181L221.022 277.749C223.468 276.322 226.549 274.537 228.824 273.078C230.373 272.067 234.294 269.507 237.049 267.371C240.937 264.354 245.494 260.58 248.665 257.767C250.834 255.835 253.842 252.876 256.32 250.226C259.472 246.955 262.439 243.509 265.205 239.905C265.8 239.09 266.469 238.193 267.162 237.272C268.792 235.095 270.422 232.845 271.727 230.913C274.174 227.331 276.43 223.622 278.485 219.801C278.957 218.855 279.495 217.812 280.05 216.736C281.305 214.29 282.601 211.795 283.555 209.659C285.259 205.844 287.126 201.181 288.324 197.773C289.522 194.365 290.9 189.849 291.715 186.718C292.842 182.583 293.757 178.392 294.454 174.163C294.568 173.348 294.699 172.451 294.829 171.538C295.269 168.53 295.758 165.114 295.995 162.399C296.337 158.461 296.573 153.195 296.598 149.29C296.52 141.299 295.885 133.322 294.699 125.419C293.603 118.485 291.99 111.642 289.873 104.948C288.544 100.872 287.101 96.7959 286.001 94.1055C284.55 90.5347 282.308 85.8063 280.824 82.692C279.61 80.1321 277.563 76.439 275.346 72.8193C273.3 69.4605 270.504 65.262 268.401 62.3678C266.298 59.4737 263.567 56.017 261.545 53.6691C259.222 50.9625 256.01 47.5955 253.434 44.8888L252.904 44.3345C250.116 41.4077 246.171 38.0407 245.03 37.0706C241.964 34.4944 237.62 31.1926 234.742 29.0159C230.593 26.0539 226.297 23.303 221.87 20.7737L221.707 20.684C219.262 19.3959 216.172 17.7899 213.017 16.2409C193.592 7.37915 171.802 4.28935 149.433 7.27317H149.368L149.286 6.66988C166.786 4.20253 184.617 5.70435 201.458 11.0641C199.828 10.4445 198.124 9.8412 196.567 9.31944C193.91 8.43897 191.912 7.80308 190.469 7.37915C187.845 6.61281 185.75 6.05029 184.233 5.69973L182.815 5.37363C181.649 5.1046 180.369 4.80296 179.342 4.55838C177.94 4.25674 176.081 3.90618 174.753 3.66976C174.598 3.66976 171.093 3.00125 166.87 2.48764C159.688 1.61533 154.014 1.48489 153.387 1.47673C151.202 1.50119 149.963 1.50119 148.781 1.50119Z" fill="#F86917" fill-opacity="0.21"/>
<path d="M282.063 131.697L281.607 131.444C245.739 111.063 157.129 102.511 83.9987 112.351L83.6482 112.4V112.049C83.746 59.0987 97.2454 18.4014 118.872 5.84653C128.23 0.408808 138.771 0.702298 149.36 6.66178C183.386 2.13714 215.675 11.5777 240.448 33.296C253.618 44.8944 264.033 59.2854 270.936 75.42C278.379 92.5403 282.129 111.291 282.096 131.216L282.063 131.697ZM147.868 107.663C202.6 107.663 255.472 116.134 281.452 130.653C281.452 111.014 277.686 92.4995 270.349 75.6238C263.473 59.5733 253.108 45.2559 240.008 33.7118C215.382 12.1321 183.182 2.73227 149.336 7.30583H149.238L149.148 7.24876C138.551 1.24852 128.491 0.946869 119.174 6.35198C97.7916 18.7927 84.4226 59.1313 84.2596 111.699C105.351 108.962 126.6 107.614 147.868 107.663Z" fill="#F86917" fill-opacity="0.21"/>
<path d="M216.05 17.684C198.002 7.42816 153.33 3.13179 116.484 8.07221L116.402 7.46893C153.362 2.4959 198.197 6.84118 216.352 17.1541L216.05 17.684Z" fill="#F86917" fill-opacity="0.21"/>
<path d="M263.591 62.2537C232.663 44.7095 156.15 37.2907 93.0307 45.7775L92.9492 45.1742C156.175 36.6711 232.867 44.098 263.893 61.7238L263.591 62.2537Z" fill="#F86917" fill-opacity="0.21"/>
<path d="M231.098 114.952H230.487C230.576 65.7349 216.278 26.7659 192.23 10.6973C179.408 2.13719 164.604 0.91431 149.417 7.28142L149.148 6.7189C164.539 0.311028 179.538 1.50945 192.54 10.1919C216.808 26.3664 231.188 65.5311 231.098 114.952Z" fill="#F86917" fill-opacity="0.21"/>
<path d="M160.137 108.087H159.525C159.648 38.7908 156.004 1.99034 152.327 1.5175C151.968 1.46858 150.958 1.90881 149.596 7.0775L149.001 6.92261C150.126 2.65885 151.21 0.743009 152.409 0.906059C157.879 1.62348 160.234 55.2507 160.137 108.087Z" fill="#F86917" fill-opacity="0.21"/>
<path d="M16.6157 167.397L16.1592 167.144C4.93409 160.76 -0.274914 153.635 1.09459 146.543C2.39073 139.89 9.36869 133.556 20.9524 128.004C32.5769 82.3252 63.5538 42.6225 103.416 21.5646C107.924 14.529 113.109 9.18908 118.905 5.84655C128.287 0.392522 138.86 0.702314 149.482 6.73517L150.297 7.18356L149.392 7.30585C133.477 9.50605 118.074 14.4928 103.889 22.0374C91.5961 41.3181 84.3899 73.3982 84.3247 112.049V112.318H84.0638C57.4807 115.889 35.9681 121.531 21.5475 128.354C18.3476 140.935 16.7049 153.861 16.6564 166.842L16.6157 167.397ZM20.7649 128.729C9.63769 134.126 2.94505 140.241 1.69782 146.665C0.393527 153.382 5.34168 160.182 16.0124 166.353C16.0929 153.667 17.6884 141.037 20.7649 128.729ZM102.772 22.5999C63.6435 43.6171 33.2209 82.7165 21.6616 127.669C36.0985 120.903 57.4318 115.327 83.6155 111.78C83.754 73.7406 90.7809 42.0437 102.772 22.5999ZM132.934 2.52848C128.084 2.55899 123.331 3.89371 119.174 6.39277C113.736 9.55594 108.821 14.5453 104.5 21.0673C118.205 13.8847 133.024 9.06941 148.333 6.82485C143.63 4.12279 138.324 2.64547 132.901 2.52848H132.934Z" fill="#F86917" fill-opacity="0.21"/>
<path d="M82.1727 35.6929C76.4664 32.4319 73.7926 28.7877 74.5018 25.1435C75.9854 17.5209 92.0364 10.7462 116.402 7.46887L116.484 8.07216C92.3869 11.3332 76.5398 17.8552 75.105 25.2576C74.4529 28.6246 77.0044 32.0487 82.4417 35.1548L82.1727 35.6929Z" fill="#F86917" fill-opacity="0.21"/>
<path d="M34.4436 93.0783C24.7266 87.5591 20.2268 81.3958 21.4007 75.2488C23.9114 62.2945 51.3179 50.7913 92.9329 45.1742L93.0144 45.7775C51.6847 51.3375 24.4739 62.645 21.9795 75.3629C20.8464 81.2246 25.2402 87.1678 34.7126 92.5403L34.4436 93.0783Z" fill="#F86917" fill-opacity="0.21"/>
<path d="M26.1614 126.104H25.55C25.6234 85.3416 40.9651 49.2668 67.6297 27.1409C90.2592 8.3901 119.28 1.10991 149.352 6.70253L149.246 7.30582C119.353 1.74581 90.5119 8.93632 68.021 27.6056C41.495 49.601 26.2348 85.521 26.1614 126.104Z" fill="#F86917" fill-opacity="0.21"/>
<path d="M1.89361 145.801H1.28223C1.34744 108.853 16.1022 74.1319 42.8565 48.0439C71.0618 20.5047 108.886 5.84649 149.336 6.71881V7.33025C108.951 6.39271 71.3308 21.0672 43.2478 48.4597C16.6484 74.4335 1.95883 108.992 1.89361 145.801Z" fill="#F86917" fill-opacity="0.21"/>
<path d="M150.2 190.387C95.1423 190.387 41.9924 181.818 16.1593 167.144L16.0044 167.054V166.875C16.1511 88.4151 75.9284 16.5589 149.254 6.70251H149.36L149.45 6.75143C185.424 27.1898 214.566 107.606 214.42 186.017V186.286H214.159C192.953 189.062 171.586 190.432 150.2 190.387ZM16.6158 166.695C52.4838 186.971 140.841 195.498 213.808 185.732C213.89 107.671 184.951 27.7197 149.238 7.32211C76.3034 17.1866 16.8522 88.6352 16.6158 166.695Z" fill="#F86917" fill-opacity="0.21"/>
<path d="M149.865 47.4325C122.068 47.4325 95.2482 43.1035 82.2053 35.6929L82.5069 35.1548C100.555 45.4106 145.219 49.7233 182.073 44.7666L182.155 45.3699C171.449 46.7715 160.662 47.4605 149.865 47.4325Z" fill="#F86917" fill-opacity="0.21"/>
<path d="M150.183 113.191C102.642 113.191 56.7472 105.788 34.4275 93.1191L34.7291 92.5811C65.6571 110.158 142.17 117.552 205.29 109.057L205.371 109.669C187.073 112.056 168.637 113.233 150.183 113.191Z" fill="#F86917" fill-opacity="0.21"/>
<path d="M67.6297 183.098H67.0183C67.1243 104.679 103.995 25.5512 149.148 6.71887L149.384 7.28139C104.443 26.0322 67.7275 104.9 67.6297 183.098Z" fill="#F86917" fill-opacity="0.21"/>
<path d="M138.551 189.963H137.939C138.078 111.633 143.042 29.5214 149.001 6.92261L149.596 7.0775C143.645 29.6355 138.689 111.674 138.551 189.963Z" fill="#F86917" fill-opacity="0.21"/>
<path d="M213.808 186.351V186.001C213.955 107.785 184.951 27.5892 149.148 7.26502L148.333 6.81663L149.229 6.70249C183.255 2.12893 215.626 11.594 240.391 33.2552C253.561 44.8536 263.976 59.2446 270.879 75.3792C278.297 92.4343 282.055 111.144 282.039 130.996C293.158 137.355 298.343 144.447 296.949 151.507C294.047 166.492 262.312 179.821 214.134 186.302L213.808 186.351ZM150.232 7.20795C185.79 28.3229 214.477 107.932 214.42 185.666C262.132 179.21 293.492 166.1 296.37 151.426C297.69 144.61 292.587 137.713 281.607 131.477L281.452 131.387V131.208C281.452 111.373 277.751 92.687 270.349 75.6564C263.473 59.6058 253.108 45.2885 240.008 33.7444C215.602 12.3196 183.744 2.91973 150.232 7.20795Z" fill="#F86917" fill-opacity="0.21"/>
<path d="M182.122 45.3699L182.041 44.7666C206.137 41.5056 221.984 34.9836 223.419 27.5811C224.071 24.2223 221.528 20.7982 216.083 17.684L216.384 17.1541C222.09 20.4151 224.764 24.0511 224.055 27.7034C222.514 35.326 206.488 42.0926 182.122 45.3699Z" fill="#F86917" fill-opacity="0.21"/>
<path d="M205.395 109.628L205.314 109.016C246.66 103.456 273.871 92.1245 276.333 79.431C277.466 73.5694 273.072 67.6343 263.599 62.2537L263.901 61.7238C273.618 67.243 278.118 73.4063 276.944 79.5533C274.409 92.5076 246.97 104.027 205.395 109.628Z" fill="#F86917" fill-opacity="0.21"/>
<path d="M272.518 171.946H271.906C272.053 93.7713 217.028 19.9177 149.246 7.3058L149.352 6.70251C217.411 19.3634 272.664 93.4941 272.518 171.946Z" fill="#F86917" fill-opacity="0.21"/>
<path d="M296.786 152.274H296.174C296.321 74.1319 230.43 9.09933 149.295 7.30577V6.69434C230.772 8.49604 296.932 73.7976 296.786 152.274Z" fill="#F86917" fill-opacity="0.21"/>
<path d="M148.708 291.355L148.618 291.307C112.652 270.868 83.5013 190.452 83.648 112.049V111.78H83.917C157.153 101.924 245.975 110.525 281.908 130.939L282.063 131.028V131.208C281.917 209.659 222.139 281.515 148.814 291.372L148.708 291.355ZM84.2594 112.318C84.186 190.37 113.117 270.322 148.83 290.72C221.764 280.847 281.207 209.39 281.452 131.354C245.559 111.079 157.226 102.592 84.2594 112.318Z" fill="#F86917" fill-opacity="0.21"/>
<path d="M263.322 205.501C232.394 187.933 155.881 180.538 92.7619 189.025L92.6804 188.422C155.914 179.919 232.598 187.346 263.632 204.971L263.322 205.501Z" fill="#F86917" fill-opacity="0.21"/>
<path d="M215.593 262.887C197.545 252.631 152.881 248.318 116.027 253.275L115.946 252.672C152.906 247.699 197.749 252.044 215.895 262.357L215.593 262.887Z" fill="#F86917" fill-opacity="0.21"/>
<path d="M148.887 291.323L148.651 290.76C193.632 272.01 230.34 193.142 230.487 114.952H231.098C230.951 193.371 194.073 272.491 148.887 291.323Z" fill="#F86917" fill-opacity="0.21"/>
<path d="M149.066 291.119L148.479 290.964C154.422 268.406 159.378 186.367 159.525 108.087H160.137C159.99 186.416 155.025 268.52 149.066 291.119Z" fill="#F86917" fill-opacity="0.21"/>
<path d="M132.127 292.472C104.305 292.472 78.325 282.909 57.6519 264.754C44.4826 253.155 34.0669 238.764 27.1641 222.63C19.746 205.583 15.9961 186.873 16.0043 167.022C4.88521 160.663 -0.299344 153.57 1.09462 146.51C4.00482 131.526 35.7398 118.188 83.9171 111.715L84.2595 111.666V112.017C84.1127 190.224 113.125 270.404 148.92 290.744L149.735 291.192L148.838 291.307C143.3 292.069 137.717 292.459 132.127 292.472ZM83.6481 112.375C35.9355 118.832 4.57544 131.941 1.69784 146.616C0.377249 153.431 5.48029 160.328 16.4608 166.565L16.6157 166.655V166.834C16.6157 186.669 20.3166 205.355 27.7266 222.377C34.5947 238.428 44.9542 252.746 58.0514 264.289C82.4661 285.681 114.299 295.081 147.844 290.809C112.285 269.719 83.591 190.126 83.6481 112.375Z" fill="#F86917" fill-opacity="0.21"/>
<path d="M34.2073 236.293C24.4985 230.782 19.9905 224.611 21.1644 218.472C23.6751 205.518 51.0897 194.015 92.6966 188.397L92.7781 189.001C51.4321 194.561 24.2213 205.901 21.7676 218.586C20.6263 224.448 25.0283 230.391 34.4926 235.764L34.2073 236.293Z" fill="#F86917" fill-opacity="0.21"/>
<path d="M81.7242 280.888C76.0179 277.627 73.3441 273.991 74.0452 270.347C75.5288 262.716 91.5797 255.949 115.946 252.672L116.027 253.275C91.9303 256.536 76.0831 263.099 74.6484 270.461C73.9962 273.828 76.5478 277.244 81.985 280.358L81.7242 280.888Z" fill="#F86917" fill-opacity="0.21"/>
<path d="M148.716 291.339C80.6727 278.686 25.4034 204.548 25.5501 126.104H26.1615C26.0147 204.27 81.0395 278.124 148.83 290.736L148.716 291.339Z" fill="#F86917" fill-opacity="0.21"/>
<path d="M148.765 291.347C67.2957 289.546 1.13549 224.244 1.28223 145.776H1.89361C1.74688 223.918 67.638 288.942 148.781 290.736L148.765 291.347Z" fill="#F86917" fill-opacity="0.21"/>
<path d="M165.183 296.068C159.375 295.955 153.697 294.331 148.708 291.356C143.212 292.097 137.673 292.47 132.127 292.472C104.305 292.472 78.325 282.91 57.652 264.754C44.4827 253.156 34.067 238.765 27.1642 222.63C19.7216 205.51 15.9718 186.759 16.0044 166.842V166.321L16.4527 166.573C52.3207 186.955 140.939 195.507 214.069 185.666L214.411 185.618V185.968C214.314 238.919 200.822 279.608 179.196 292.163C174.958 294.694 170.119 296.042 165.183 296.068ZM148.83 290.72L148.92 290.777C159.517 296.777 169.576 297.079 178.894 291.674C200.284 279.249 213.653 238.91 213.808 186.351C140.947 196.085 52.7854 187.599 16.6157 167.397C16.6157 187.036 20.3819 205.542 27.7267 222.418C34.5948 238.469 44.9543 252.787 58.0514 264.33C82.6781 285.91 114.886 295.31 148.732 290.736L148.83 290.72Z" fill="#F86917" fill-opacity="0.21"/>
<path d="M149.914 256.397C102.373 256.397 56.4781 248.995 34.1584 236.318L34.4601 235.788C65.3881 253.365 141.901 260.759 205.029 252.264L205.11 252.875C186.809 255.263 168.37 256.439 149.914 256.397Z" fill="#F86917" fill-opacity="0.21"/>
<path d="M149.409 292.636C121.611 292.636 94.7917 288.307 81.7488 280.888L82.0504 280.358C100.099 290.614 144.762 294.926 181.609 289.97L181.69 290.573C170.987 291.974 160.203 292.664 149.409 292.636Z" fill="#F86917" fill-opacity="0.21"/>
<path d="M129.706 295.383C121.062 295.36 112.626 292.735 105.495 287.85C81.284 271.675 66.8797 232.519 66.9775 183.098H67.6297C67.5319 232.315 81.8383 271.284 105.878 287.345C118.701 295.905 133.505 297.087 148.691 290.76L148.928 291.323C142.853 293.938 136.319 295.318 129.706 295.383Z" fill="#F86917" fill-opacity="0.21"/>
<path d="M145.798 297.144H145.667C140.189 296.426 137.841 242.799 137.939 189.971H138.551C138.42 259.267 142.072 296.06 145.741 296.541C146.099 296.541 147.11 296.141 148.48 290.972L149.066 291.127C147.982 295.22 146.947 297.144 145.798 297.144Z" fill="#F86917" fill-opacity="0.21"/>
<path d="M165.183 296.068C159.786 296.068 154.21 294.478 148.618 291.307L147.803 290.858L148.7 290.736C164.617 288.532 180.022 283.545 194.211 276.004C206.496 256.724 213.702 224.644 213.776 186.001V185.748H214.045C240.62 182.177 262.14 176.536 276.553 169.712C279.753 157.131 281.395 144.205 281.444 131.224V130.702L281.9 130.955C293.142 137.289 298.326 144.415 296.973 151.507C295.685 158.16 288.707 164.494 277.123 170.038C265.523 215.692 234.522 255.419 194.651 276.477C190.144 283.513 184.959 288.853 179.204 292.195C174.96 294.716 170.118 296.053 165.183 296.068ZM149.694 291.217C159.974 296.793 169.788 296.924 178.87 291.673C184.307 288.51 189.231 283.521 193.543 277.04C179.836 284.197 165.02 288.99 149.719 291.217H149.694ZM214.395 186.27C214.289 224.309 207.27 255.998 195.279 275.442C234.408 254.425 264.822 215.333 276.382 170.38C261.969 177.147 240.636 182.723 214.42 186.27H214.395ZM282.055 131.705C281.972 144.388 280.374 157.016 277.295 169.321C288.422 163.924 295.123 157.809 296.362 151.385C297.674 144.676 292.726 137.868 282.063 131.705H282.055Z" fill="#F86917" fill-opacity="0.21"/>
<path d="M205.126 252.876L205.045 252.264C246.383 246.704 273.594 235.372 276.055 222.679C277.189 216.817 272.795 210.882 263.322 205.502L263.632 204.972C273.341 210.491 277.849 216.654 276.675 222.801C274.14 235.756 246.733 247.275 205.126 252.876Z" fill="#F86917" fill-opacity="0.21"/>
<path d="M181.666 290.573L181.584 289.969C205.689 286.708 221.528 280.186 222.963 272.784C223.615 269.425 221.071 266.001 215.626 262.887L215.928 262.357C221.634 265.618 224.308 269.254 223.598 272.906C222.09 280.529 206.031 287.295 181.666 290.573Z" fill="#F86917" fill-opacity="0.21"/>
<path d="M168.37 293.182C161.776 293.172 155.197 292.555 148.716 291.339L148.83 290.736C178.723 296.304 207.564 289.105 230.055 270.436C256.581 248.424 271.833 212.553 271.906 171.946H272.518C272.444 212.708 257.111 248.783 230.438 270.901C213.023 285.416 191.039 293.307 168.37 293.182Z" fill="#F86917" fill-opacity="0.21"/>
<path d="M152.246 291.38C151.088 291.38 149.931 291.38 148.765 291.38V290.768C189.067 291.657 226.721 277.04 254.812 249.614C281.403 223.641 296.093 189.082 296.158 152.306H296.769C296.704 189.253 281.949 223.967 255.236 250.055C227.862 276.771 191.391 291.38 152.246 291.38Z" fill="#F86917" fill-opacity="0.21"/>
<path d="M149.002 297.185H147.893C145.871 297.144 143.295 297.07 141.494 296.997C137.605 296.834 133.285 296.345 131.214 296.108C128.133 295.758 123.682 295 123.389 294.943C119.794 294.274 117.226 293.793 114.136 293.01C112.31 292.554 110.232 292.024 108.675 291.576C106.629 290.989 104.305 290.304 102.577 289.701L101.648 289.366C99.5854 288.649 97.0257 287.736 95.1263 286.986C91.7841 285.673 89.3141 284.621 87.5615 283.774C84.8877 282.469 79.8335 279.975 76.0919 277.896C72.8311 276.07 69.5704 274.113 67.5487 272.654C66.8069 272.124 65.9754 271.553 65.1032 270.966C63.0571 269.547 60.9376 268.088 59.2583 266.767C57.7502 265.585 52.5168 261.444 48.5795 257.8C46.5089 255.884 43.24 252.729 40.8515 250.128C38.7239 247.813 34.754 243.402 32.0476 239.823C27.088 233.46 22.6576 226.7 18.8009 219.613C15.2748 212.843 12.1553 205.868 9.45887 198.727C7.97815 194.669 6.71553 190.535 5.67643 186.343C5.05689 184.028 4.47811 181.191 3.91563 178.451C3.66293 177.196 3.41022 176.006 3.17382 174.881C2.33065 170.606 1.76159 166.282 1.47009 161.934C1.14402 157.508 0.923923 152.347 0.915771 148.784C0.915771 146.143 1.09511 142.825 1.25815 139.898C1.32336 138.773 1.38042 137.697 1.42933 136.711C1.71474 131.835 2.35775 126.988 3.35316 122.207L3.86673 119.827C4.49442 116.827 5.21178 113.427 5.93729 110.769C6.96442 106.97 8.50512 102.079 9.76865 98.5975C10.9833 95.2469 12.7196 90.9749 14.1054 87.9993C15.0755 85.8878 17.5781 80.5479 19.8769 76.6265C23.3822 70.6263 28.583 63.0852 32.2758 58.0307C34.8644 54.6633 37.6204 51.4281 40.5336 48.3373C43.6069 44.9879 46.853 41.8014 50.2587 38.7907C52.3945 36.9564 59.8616 30.6382 66.2118 26.3337C69.3095 24.2304 73.9968 21.2547 77.8608 19.2084L78.5292 18.8497C80.665 17.7165 83.3307 16.3061 85.4175 15.3197C87.5044 14.3332 91.5558 12.4663 94.6372 11.2923L95.7866 10.8439C97.1724 10.314 98.7376 9.70258 100.009 9.28681C102.756 8.38188 107.346 6.84105 110.77 5.96873C116.887 4.33353 123.099 3.08105 129.372 2.21858L129.413 2.52022L129.372 2.21858C133.138 1.71312 137.263 1.31365 140.41 1.1506C143.189 1.00385 144.225 0.946787 147.013 0.906025C149.801 0.865262 152.637 0.906024 153.412 0.963092C155.368 1.02831 157.219 1.09353 159.933 1.29734C162.648 1.50116 164.066 1.6479 166.903 1.974C169.349 2.26749 169.683 2.31641 174.672 3.13166C175.634 3.28656 176.783 3.51483 177.802 3.71864L178.927 3.93876C181.585 4.45236 186.598 5.6834 189.435 6.51495C193.299 7.64 198.239 9.27865 201.744 10.5912C204.679 11.6918 208.143 13.1429 210.572 14.2924C213.833 15.8414 218.455 18.1975 222.05 20.1704C223.452 20.9857 224.838 21.8009 226.191 22.6162C227.732 23.5374 229.232 24.4586 230.495 25.3228C234.767 28.2658 239.74 31.9345 243.163 34.6737C248.266 38.75 254.511 45.1089 258.766 49.5276C262.031 52.957 265.049 56.613 267.798 60.4683L269.2 62.4819C271.222 65.3598 273.504 68.6289 275.184 71.3029C277.213 74.5005 279.079 77.7983 280.776 81.1838L281.477 82.6349C283.001 85.7981 284.893 89.7439 286.172 92.8256C287.452 95.9072 289.042 100.244 290.142 103.668C291.243 107.092 292.645 112.18 293.542 116.044C294.479 120.12 295.359 125.501 295.702 127.645C296.748 134.804 297.26 142.031 297.234 149.265C297.043 157.262 296.384 165.241 295.262 173.16C294.668 177.411 293.785 181.617 292.62 185.748C292.311 186.791 291.976 187.965 291.634 189.172C290.868 191.846 290.077 194.618 289.295 196.876C287.974 200.881 286.436 204.811 284.689 208.648C284.249 209.561 283.776 210.572 283.278 211.616C282.137 214.062 280.833 216.768 279.7 218.88C277.825 222.336 275.241 226.698 273.268 229.722C271.295 232.747 268.752 236.334 266.82 238.837C265.736 240.231 261.929 245.082 258.668 248.62C255.546 251.979 252.962 254.579 251.103 256.357C247.973 259.292 244.125 262.642 241.321 264.892C239.128 266.645 235.835 269.148 233.169 270.933C229.672 273.298 224.928 276.208 221.659 278.14C216.356 281.111 210.885 283.77 205.274 286.105C203.317 286.872 198.328 288.804 194.375 290.076C191.285 291.07 186.932 292.285 183.541 293.108C180.15 293.932 176.09 294.739 173.229 295.22C167.726 296.108 165.688 296.296 161.229 296.712C160.227 296.801 156.542 297.111 151.146 297.201L149.002 297.185ZM148.798 1.50116H146.98C144.2 1.54192 143.173 1.59899 140.41 1.74573C137.263 1.90878 133.163 2.30825 129.413 2.80556C123.167 3.66576 116.982 4.91553 110.892 6.54756C107.501 7.43619 102.903 8.9444 100.156 9.80857C98.9006 10.2243 97.3436 10.8276 95.966 11.3575L94.8166 11.8059C91.7515 12.9717 87.7489 14.8224 85.6376 15.817C83.5263 16.8116 80.9096 18.2057 78.7738 19.3307L78.1053 19.6894C74.125 21.8549 70.2561 24.2194 66.5135 26.7739C60.1876 31.0703 52.745 37.3722 50.6174 39.1902C47.2287 42.1825 44.0014 45.3528 40.9494 48.6879C38.0468 51.7619 35.3015 54.9808 32.7242 58.3323C29.0395 63.3706 23.8631 70.8872 20.366 76.8711C18.0835 80.768 15.5809 86.0834 14.619 88.1949C13.2413 91.1787 11.5131 95.4344 10.2985 98.7932C9.08389 102.152 7.51059 107.133 6.48347 110.916C5.76611 113.557 5.04875 116.949 4.42106 119.933C4.24172 120.748 4.07867 121.563 3.91563 122.321C2.91903 127.069 2.27869 131.884 1.99996 136.727C1.95105 137.713 1.89399 138.789 1.82877 139.914C1.66573 142.833 1.4864 146.143 1.4864 148.76C1.4864 152.314 1.71464 157.459 2.04071 161.869C2.33058 166.189 2.89419 170.486 3.72815 174.734C3.9727 175.834 4.21725 177.049 4.47811 178.313C5.03244 181.044 5.61121 183.865 6.2226 186.172C7.26148 190.341 8.5269 194.451 10.0132 198.482C12.6986 205.599 15.8073 212.549 19.3226 219.295C23.166 226.356 27.58 233.091 32.5204 239.432C35.2105 242.987 39.1641 247.389 41.2836 249.688C43.6558 252.272 46.9165 255.395 48.9789 257.327C52.8918 260.955 58.1171 265.088 59.5763 266.295C61.2474 267.607 63.3505 269.058 65.3967 270.469L67.8422 272.164C70.5791 274.039 73.4086 275.775 76.3201 277.366C80.0536 279.436 85.0915 281.931 87.7326 283.227C89.469 284.043 91.9308 285.119 95.2486 286.431C97.1725 287.181 99.724 288.062 101.77 288.804L102.708 289.13C104.419 289.733 106.735 290.41 108.772 290.997C110.321 291.437 112.392 291.967 114.21 292.423C117.283 293.198 119.843 293.679 123.389 294.347C123.723 294.413 128.141 295.163 131.206 295.505C133.277 295.742 137.581 296.231 141.445 296.394C143.247 296.467 145.814 296.54 147.836 296.581C148.871 296.581 150.282 296.581 151.015 296.581C156.395 296.492 160.064 296.19 161.058 296.092C165.509 295.684 167.531 295.489 173.017 294.608C175.87 294.144 179.897 293.32 183.28 292.505C186.663 291.69 191 290.475 194.073 289.489C198.01 288.217 202.983 286.293 204.939 285.526C210.523 283.207 215.967 280.564 221.243 277.61C224.504 275.678 229.232 272.776 232.721 270.42C235.354 268.643 238.631 266.148 240.824 264.403C243.628 262.169 247.459 258.827 250.606 255.9C252.489 254.139 255.024 251.547 258.138 248.196C261.399 244.699 265.181 239.872 266.29 238.478C268.214 236.033 270.79 232.339 272.706 229.405C274.621 226.47 277.246 222.067 279.113 218.602C280.246 216.507 281.558 213.776 282.675 211.371L284.094 208.404C285.829 204.583 287.358 200.673 288.675 196.689C289.449 194.447 290.232 191.683 290.998 189.017C291.341 187.81 291.675 186.636 291.985 185.585C293.139 181.491 294.016 177.324 294.609 173.111C295.725 165.216 296.381 157.262 296.574 149.29C296.602 142.088 296.092 134.894 295.05 127.767C294.707 125.639 293.827 120.242 292.898 116.215C292.001 112.359 290.64 107.41 289.515 103.889C288.39 100.367 286.833 96.1355 285.561 93.0864C284.289 90.0374 282.398 86.0916 280.874 82.9284L280.181 81.4773C278.49 78.1253 276.631 74.8601 274.613 71.6943C272.942 69.0284 270.668 65.7674 268.654 62.8977L267.244 60.884C264.517 57.053 261.52 53.4214 258.277 50.0167C254.03 45.6062 247.802 39.2799 242.731 35.2118L241.476 34.2253C266.535 56.5795 281.208 89.8988 282.023 127.523C282.023 128.648 282.064 129.765 282.064 130.898V131.175C281.917 209.627 222.14 281.483 148.814 291.339L148.733 290.736C221.765 280.953 281.306 209.333 281.452 131.175V130.898C281.452 84.9176 260.763 45.0356 225.833 23.1461L224.373 22.2819C223.428 21.7194 222.523 21.1813 221.708 20.6514C218.129 18.6948 213.556 16.3387 210.295 14.7979C207.85 13.6565 204.426 12.2054 201.516 11.113C198.027 9.79226 193.095 8.1536 189.288 7.03671C186.459 6.22146 181.479 4.99859 178.837 4.48498L177.68 4.28117C176.669 4.08551 175.528 3.85723 174.615 3.71049C169.601 2.89524 169.3 2.83817 166.83 2.55283C164.001 2.21858 162.68 2.07998 159.884 1.87617C157.088 1.67236 155.344 1.60714 153.363 1.53377C152.752 1.50116 150.86 1.50116 148.798 1.50116Z" fill="#F86917" fill-opacity="0.21"/>
<path d="M148.708 292.138L148.618 292.089C112.465 271.537 83.1181 190.68 83.2893 111.846V111.56H83.5583C157.202 101.655 246.505 110.297 282.642 130.825L282.797 130.914V131.094C282.65 209.961 222.514 282.208 148.814 292.122L148.708 292.138ZM83.9333 112.115C83.8599 190.599 112.954 270.991 148.863 291.47C222.229 281.548 281.982 209.708 282.21 131.224C246.097 110.867 157.3 102.291 83.9333 112.115Z" fill="#F86917" fill-opacity="0.21"/>
<path d="M215.993 263.515C197.847 253.202 152.93 248.84 115.88 253.846L115.799 253.243C152.963 248.245 198.051 252.615 216.294 262.977L215.993 263.515Z" fill="#F86917" fill-opacity="0.21"/>
<path d="M263.958 205.811C232.859 188.145 155.922 180.71 92.4519 189.245L92.3704 188.642C155.955 180.09 233.063 187.558 264.26 205.281L263.958 205.811Z" fill="#F86917" fill-opacity="0.21"/>
<path d="M148.887 292.106L148.651 291.543C193.877 272.686 230.788 193.387 230.935 114.764H231.546C231.4 193.615 194.317 273.167 148.887 292.106Z" fill="#F86917" fill-opacity="0.21"/>
<path d="M149.066 291.902L148.471 291.747C154.455 269.067 159.435 186.58 159.582 107.859H160.193C160.047 186.62 155.058 269.181 149.066 291.902Z" fill="#F86917" fill-opacity="0.21"/>
<path d="M132.029 293.263C104.052 293.263 77.9335 283.643 57.1383 265.422C43.8919 253.751 33.42 239.267 26.4874 223.029C19.0285 205.909 15.2542 187.069 15.2705 167.111C4.08622 160.712 -1.09834 153.586 0.271169 146.494C3.23028 131.46 35.112 118.082 83.5583 111.56L83.9007 111.511V111.862C83.754 190.501 112.921 271.121 148.92 291.576L149.735 292.024L148.838 292.138C143.266 292.887 137.651 293.263 132.029 293.263ZM83.2811 112.196C35.2995 118.718 3.73569 131.884 0.874401 146.649C-0.454345 153.497 4.6813 160.434 15.727 166.704L15.8819 166.793V166.997C15.8411 186.938 19.5991 205.73 27.0417 222.85C33.9501 238.99 44.3711 253.387 57.5458 264.99C82.091 286.497 114.128 295.97 147.835 291.657C112.082 270.404 83.2322 190.354 83.2893 112.196H83.2811Z" fill="#F86917" fill-opacity="0.21"/>
<path d="M81.3491 281.613C75.5939 278.352 72.9283 274.676 73.6375 271.015C75.1211 263.352 91.2617 256.544 115.766 253.251L115.848 253.854C91.6123 257.115 75.6755 263.735 74.2733 271.137C73.613 274.521 76.1809 277.961 81.6834 281.092L81.3491 281.613Z" fill="#F86917" fill-opacity="0.21"/>
<path d="M33.547 236.799C23.7648 231.255 19.2487 225.059 20.447 218.863C22.9741 205.819 50.5273 194.251 92.3706 188.626L92.4521 189.229C50.8778 194.822 23.5203 206.219 21.0421 218.978C19.9009 224.872 24.3029 230.848 33.8486 236.253L33.547 236.799Z" fill="#F86917" fill-opacity="0.21"/>
<path d="M148.716 292.122C80.2405 279.388 24.7266 204.89 24.8733 125.982H25.4847C25.338 204.58 80.6644 278.841 148.822 291.519L148.716 292.122Z" fill="#F86917" fill-opacity="0.21"/>
<path d="M148.765 292.13C66.8145 290.32 0.320062 224.66 0.466795 145.752H1.07818C0.931449 224.317 67.1894 289.709 148.773 291.51L148.765 292.13Z" fill="#F86917" fill-opacity="0.21"/>
<path d="M165.272 296.883C159.432 296.767 153.723 295.132 148.708 292.138C114.535 296.712 82.0257 287.247 57.1464 265.422C43.9001 253.751 33.4281 239.267 26.4955 223.029C19.0122 205.836 15.2379 186.954 15.2786 166.932V166.41L15.7351 166.663C51.7662 187.142 140.906 195.751 214.428 185.862L214.778 185.813V186.164C214.68 239.4 201.108 280.317 179.367 292.962C175.104 295.508 170.237 296.862 165.272 296.883ZM148.83 291.502L148.92 291.559C159.517 297.592 169.69 297.902 179.081 292.456C200.594 279.966 214.036 239.4 214.191 186.555C140.923 196.338 52.2798 187.802 15.9145 167.494C15.9145 187.24 19.6969 205.852 27.0743 222.826C33.9827 238.966 44.4037 253.362 57.5784 264.966C82.3437 286.668 114.723 296.1 148.757 291.519L148.83 291.502Z" fill="#F86917" fill-opacity="0.21"/>
<path d="M149.409 293.418C121.464 293.418 94.4738 289.073 81.3494 281.613L81.651 281.083C99.7969 291.396 144.713 295.758 181.763 290.744L181.845 291.356C171.09 292.756 160.255 293.445 149.409 293.418Z" fill="#F86917" fill-opacity="0.21"/>
<path d="M149.914 256.985C102.12 256.985 55.9725 249.541 33.5469 236.799L33.8485 236.269C64.9477 253.944 141.876 261.371 205.355 252.835L205.428 253.438C187.022 255.843 168.477 257.028 149.914 256.985Z" fill="#F86917" fill-opacity="0.21"/>
<path d="M129.584 296.19C120.894 296.166 112.412 293.527 105.242 288.616C80.8928 272.352 66.4151 232.975 66.5048 183.286H67.1162C67.0265 232.772 81.4063 271.953 105.585 288.103C118.473 296.72 133.366 297.886 148.634 291.543L148.871 292.106C142.776 294.732 136.22 296.12 129.584 296.19Z" fill="#F86917" fill-opacity="0.21"/>
<path d="M145.781 297.959H145.643C140.14 297.242 137.776 243.337 137.874 190.191H138.485C138.355 259.895 142.031 296.859 145.724 297.34C146.115 297.413 147.11 296.932 148.471 291.747L149.066 291.902C147.982 296.019 146.931 297.959 145.781 297.959Z" fill="#F86917" fill-opacity="0.21"/>
<path d="M165.272 296.883C159.843 296.883 154.235 295.253 148.618 292.089L147.803 291.641L148.708 291.519C164.711 289.308 180.2 284.293 194.464 276.706C206.822 257.319 214.069 225.068 214.142 186.213V185.944H214.403C241.133 182.348 262.792 176.682 277.27 169.818C280.478 157.167 282.121 144.17 282.161 131.118V130.596L282.618 130.849C293.908 137.265 299.141 144.431 297.764 151.556C296.467 158.25 289.449 164.6 277.8 170.201C266.143 216.124 234.962 256.047 194.879 277.219C190.347 284.296 185.097 289.66 179.342 293.027C175.081 295.546 170.222 296.877 165.272 296.883ZM149.718 291.992C160.055 297.6 169.927 297.755 179.065 292.448C184.535 289.277 189.483 284.296 193.82 277.733C180.03 284.945 165.119 289.769 149.718 292V291.992ZM214.778 186.465C214.672 224.717 207.613 256.577 195.556 276.143C234.897 255.004 265.491 215.692 277.074 170.495C262.588 177.302 241.141 182.911 214.778 186.474V186.465ZM282.789 131.599C282.709 144.354 281.103 157.054 278.004 169.427C289.204 164.005 295.938 157.85 297.185 151.393C298.497 144.651 293.517 137.811 282.789 131.607V131.599Z" fill="#F86917" fill-opacity="0.21"/>
<path d="M181.845 291.356L181.763 290.744C205.999 287.483 221.943 280.872 223.378 273.469C224.03 270.086 221.463 266.645 215.96 263.515L216.262 262.977C222.017 266.238 224.683 269.915 223.973 273.575C222.514 281.247 206.349 288.054 181.845 291.356Z" fill="#F86917" fill-opacity="0.21"/>
<path d="M205.395 253.414L205.322 252.81C246.896 247.218 274.246 235.821 276.724 223.062C277.865 217.168 273.463 211.192 263.925 205.787L264.227 205.257C274.009 210.809 278.517 217.005 277.327 223.192C274.833 236.228 247.271 247.813 205.395 253.414Z" fill="#F86917" fill-opacity="0.21"/>
<path d="M168.476 293.972C161.846 293.964 155.232 293.344 148.716 292.122L148.822 291.519C178.878 297.111 207.882 289.888 230.495 271.137C257.168 249.003 272.509 212.912 272.591 172.101H273.202C273.121 213.091 257.714 249.362 230.886 271.561C213.376 286.159 191.271 294.096 168.476 293.972Z" fill="#F86917" fill-opacity="0.21"/>
<path d="M152.262 292.163C151.096 292.163 149.93 292.163 148.765 292.163V291.551C189.32 292.44 227.161 277.749 255.399 250.169C282.145 224.081 296.916 189.31 296.973 152.339H297.584C297.519 189.482 282.683 224.383 255.822 250.617C228.294 277.472 191.627 292.163 152.262 292.163Z" fill="#F86917" fill-opacity="0.21"/>
<path d="M282.789 131.599L282.332 131.346C246.301 110.867 157.169 102.258 83.6398 112.147L83.2893 112.196V111.846C83.3871 58.6015 96.9599 17.6841 118.709 5.04769C128.116 -0.414488 138.714 -0.120998 149.36 5.86294C183.524 1.29754 216.042 10.7544 240.921 32.5787C254.165 44.2527 264.636 58.7358 271.572 74.9717C279.055 92.1654 282.83 111.038 282.797 131.069L282.789 131.599ZM147.86 107.435C202.901 107.435 256.043 115.954 282.186 130.556C282.186 110.802 278.395 92.1898 271.018 75.2245C264.109 59.0816 253.688 44.6827 240.513 33.076C215.748 11.374 183.385 1.94974 149.343 6.5233H149.238L149.148 6.47438C138.55 0.433373 128.377 0.131729 118.986 5.56945C97.5061 18.0754 84.0637 58.6423 83.9333 111.495C105.13 108.743 126.485 107.387 147.86 107.435Z" fill="#F86917" fill-opacity="0.21"/>
<path d="M264.227 61.7809C233.112 44.1063 156.183 36.6793 92.7209 45.215L92.6394 44.6036C156.224 36.0516 233.324 43.5193 264.529 61.2428L264.227 61.7809Z" fill="#F86917" fill-opacity="0.21"/>
<path d="M216.417 16.9911C198.271 6.67816 153.362 2.31657 116.304 7.33037L116.223 6.72708C153.387 1.72959 198.475 6.09118 216.718 16.4612L216.417 16.9911Z" fill="#F86917" fill-opacity="0.21"/>
<path d="M231.546 114.764H230.935C231.025 65.2784 216.645 26.0893 192.467 9.93919C179.579 1.32199 164.693 0.156182 149.417 6.50699L149.18 5.93631C164.669 -0.512321 179.733 0.702402 192.809 9.42559C217.158 25.698 231.636 65.0909 231.546 114.764Z" fill="#F86917" fill-opacity="0.21"/>
<path d="M160.194 107.859H159.582C159.745 38.1876 156.036 1.18333 152.343 0.686027C151.977 0.62896 150.966 1.0855 149.596 6.27865L149.001 6.12375C150.134 1.84368 151.235 -0.0721559 152.425 0.0745892C157.927 0.808315 160.291 54.7371 160.194 107.859Z" fill="#F86917" fill-opacity="0.21"/>
<path d="M15.8901 167.495L15.4336 167.242C4.13522 160.826 -1.09825 153.66 0.27941 146.535C1.5837 139.841 8.59426 133.49 20.2432 127.89C31.9003 81.9585 63.081 42.0356 103.172 20.8636C107.704 13.7872 112.954 8.42285 118.709 5.05587C128.141 -0.422616 138.771 -0.112822 149.45 5.95264L150.265 6.40103L149.368 6.52332C133.353 8.73056 117.853 13.7451 103.579 21.3364C91.2211 40.7231 84.0149 72.9744 83.9008 111.829V112.098H83.6399C56.9101 115.694 35.2589 121.36 20.7812 128.224C17.5729 140.875 15.9303 153.872 15.8901 166.924V167.495ZM20.0639 128.615C8.87143 134.037 2.12987 140.192 0.882643 146.649C-0.4298 153.399 4.55097 160.239 15.2788 166.443C15.3584 153.688 16.9649 140.988 20.0639 128.615ZM102.52 21.8826C63.1707 43.0792 32.5769 82.3498 20.9606 127.555C35.479 120.748 56.9264 115.139 83.2894 111.577C83.3954 73.3168 90.4548 41.4487 102.52 21.8826ZM132.844 1.72149C127.962 1.73881 123.175 3.07085 118.986 5.57763C113.516 8.75711 108.568 13.7301 104.231 20.2521C118.027 13.0656 132.937 8.26141 148.333 6.04232C143.029 3.1672 137.866 1.72693 132.844 1.72149Z" fill="#F86917" fill-opacity="0.21"/>
<path d="M33.8079 92.8094C24.0257 87.2575 19.5178 81.0616 20.7161 74.8739C23.235 61.8299 50.7963 50.2615 92.6396 44.6362L92.7211 45.2477C51.1468 50.8321 23.7893 62.2375 21.3112 74.9962C20.1699 80.8904 24.5719 86.8581 34.1095 92.2632L33.8079 92.8094Z" fill="#F86917" fill-opacity="0.21"/>
<path d="M81.8057 35.0651C76.0505 31.8041 73.3848 28.1273 74.094 24.4668C75.5777 16.8035 91.7264 9.99613 116.223 6.70251L116.304 7.3058C92.0688 10.5668 76.132 17.1866 74.7299 24.581C74.0696 27.9643 76.6374 31.4128 82.1399 34.5433L81.8057 35.0651Z" fill="#F86917" fill-opacity="0.21"/>
<path d="M25.4849 125.982H24.8735C24.9469 84.983 40.362 48.7125 67.1896 26.4725C89.9414 7.59125 119.125 0.294761 149.352 5.91999L149.246 6.52328C119.19 0.930661 90.1859 8.15378 67.5728 26.9046C40.9 49.0712 25.5583 85.1705 25.4849 125.982Z" fill="#F86917" fill-opacity="0.21"/>
<path d="M1.07818 145.801H0.466797C0.540163 108.658 15.3683 73.7489 42.2367 47.5141C70.5969 19.7956 108.617 5.06397 149.303 5.93629V6.54773C108.772 5.65095 70.9148 20.3499 42.6769 47.9299C15.9145 74.0586 1.15155 108.772 1.07818 145.801Z" fill="#F86917" fill-opacity="0.21"/>
<path d="M150.208 190.639C94.8487 190.639 41.4053 181.998 15.4581 167.242L15.3032 167.152V166.997C15.4581 88.0809 75.5289 15.8334 149.262 5.91992H149.36L149.45 5.96884C185.619 26.5213 214.925 107.386 214.778 186.221V186.49H214.509C193.19 189.29 171.71 190.677 150.208 190.639ZM15.8902 166.793C51.9783 187.175 140.792 195.759 214.167 185.935C214.248 107.451 185.155 27.0512 149.238 6.58028C75.9038 16.4611 16.1184 88.301 15.8902 166.793Z" fill="#F86917" fill-opacity="0.21"/>
<path d="M150.183 112.946C102.389 112.946 56.2417 105.511 33.8079 92.7687L34.1095 92.2306C65.1842 109.93 142.146 117.34 205.616 108.796L205.697 109.408C187.291 111.81 168.746 112.992 150.183 112.946Z" fill="#F86917" fill-opacity="0.21"/>
<path d="M149.865 46.87C121.921 46.87 94.9301 42.5166 81.8057 35.0652L82.1073 34.5353C100.261 44.84 145.17 49.2098 182.228 44.196L182.309 44.7993C171.552 46.2061 160.714 46.8978 149.865 46.87Z" fill="#F86917" fill-opacity="0.21"/>
<path d="M67.1324 183.302H66.521C66.6677 104.451 103.75 24.8908 149.18 5.95251L149.417 6.52319C104.191 25.3555 67.2791 104.655 67.1324 183.302Z" fill="#F86917" fill-opacity="0.21"/>
<path d="M138.485 190.191H137.874C138.021 111.43 143.018 28.8692 149.001 6.14819L149.596 6.30309C143.613 28.9752 138.632 111.47 138.485 190.191Z" fill="#F86917" fill-opacity="0.21"/>
<path d="M214.167 186.563V186.213C214.314 107.565 185.146 26.9453 149.148 6.49884L148.333 6.05045L149.238 5.92816C183.475 1.33015 215.993 10.8197 240.897 32.6276C254.141 44.3017 264.612 58.7848 271.548 75.0207C279.006 92.1409 282.781 110.981 282.773 130.939C293.957 137.33 299.141 144.464 297.764 151.556C294.837 166.63 262.931 180.033 214.485 186.547L214.167 186.563ZM150.232 6.39286C185.986 27.5894 214.835 107.68 214.778 185.838C262.76 179.316 294.324 166.149 297.185 151.385C298.514 144.537 293.378 137.599 282.332 131.33L282.186 131.24V131.061C282.186 111.12 278.46 92.3285 271.018 75.2082C264.109 59.0653 253.688 44.6664 240.514 33.0597C215.993 11.5697 183.94 2.11279 150.232 6.39286Z" fill="#F86917" fill-opacity="0.21"/>
<path d="M205.697 109.408L205.615 108.796C247.19 103.212 274.547 91.8065 277.025 79.0479C278.167 73.1618 273.765 67.186 264.227 61.7809L264.529 61.2428C274.311 66.7947 278.819 72.9906 277.621 79.1783C275.102 92.1897 247.54 103.783 205.697 109.408Z" fill="#F86917" fill-opacity="0.21"/>
<path d="M182.31 44.7993L182.228 44.196C206.455 40.935 222.4 34.3152 223.802 26.9127C224.454 23.5294 221.895 20.0891 216.384 16.9585L216.686 16.4286C222.441 19.6896 225.115 23.3664 224.397 27.0268C222.946 34.6984 206.806 41.5057 182.31 44.7993Z" fill="#F86917" fill-opacity="0.21"/>
<path d="M273.202 172.068H272.591C272.738 93.4697 217.403 19.2004 149.246 6.52321L149.352 5.91992C217.786 18.6215 273.349 93.1844 273.202 172.068Z" fill="#F86917" fill-opacity="0.21"/>
<path d="M297.601 152.323H296.989C297.136 73.7489 230.878 8.3576 149.295 6.5559V5.94446C231.22 7.7217 297.747 73.3902 297.601 152.323Z" fill="#F86917" fill-opacity="0.21"/>
<path d="M149.058 298C141.815 297.997 134.581 297.466 127.415 296.41C121.065 295.481 116.084 294.299 113.956 293.793C108.063 292.399 102.381 290.483 102.332 290.459C97.1825 288.757 92.1314 286.77 87.2022 284.507C83.7214 282.958 79.0504 280.578 75.6511 278.597C72.7898 276.966 69.5372 275.026 67.165 273.387C62.869 270.428 57.872 266.743 54.4319 263.988C49.3044 259.911 43.0194 253.495 38.7397 249.052C35.4557 245.603 32.421 241.925 29.6585 238.046L28.2564 236.049C26.2266 233.147 23.9278 229.853 22.2322 227.154C20.0557 223.69 17.5775 219.067 16.6075 217.241C14.7081 213.638 12.5316 208.828 11.1784 205.518C10.2735 203.333 9.3279 200.626 8.41489 198.05C7.991 196.843 7.59971 195.678 7.19212 194.626C5.76607 190.555 4.62478 186.39 3.77651 182.161C2.19534 174.35 1.05501 166.457 0.360899 158.519C-0.0711477 152.331 -0.242339 143.322 0.580995 136.588C0.719576 135.439 0.85001 134.143 0.980439 132.863C1.29836 129.805 1.64889 126.341 2.22767 123.634C2.46407 122.542 2.70862 121.327 2.96132 120.071C3.51565 117.299 4.08628 114.438 4.69767 112.09C5.71668 107.925 6.96029 103.818 8.42304 99.7879C8.80618 98.8177 9.23823 97.7416 9.63767 96.6247C10.6403 93.9914 11.6838 91.2685 12.6701 89.051C14.3005 85.3905 16.583 80.7681 18.3764 77.5641C20.1698 74.3602 22.4523 70.5448 24.1968 67.8626C26.5445 64.203 29.0776 60.6656 31.7862 57.2644C36.3778 51.6163 41.2762 46.2248 46.4594 41.1143C49.1495 38.5788 53.0216 35.2037 56.315 32.5297C58.8257 30.4834 62.1109 28.0458 64.4668 26.4479C67.7275 24.2386 72.4148 21.3281 76.0342 19.2003C78.2841 17.8878 81.3737 16.2573 83.7296 15.1241C86.2811 13.9257 89.1994 12.5723 91.4412 11.6103C93.1775 10.8766 95.5171 9.97984 97.3349 9.29503L97.9626 9.05861C102.104 7.48517 107.419 5.96065 108.951 5.53672C111.323 4.87637 113.092 4.41168 114.364 4.12634C117.046 3.53121 121.367 2.60998 124.725 2.00669C126.975 1.59906 132.38 0.840882 136.847 0.498477C146.873 -0.324634 156.957 -0.127965 166.943 1.08546C173.946 1.94147 179.171 3.08282 179.171 3.09097C182.538 3.84915 186.459 4.803 189.157 5.53672C191.374 6.14001 194.211 7.0531 195.678 7.54225C197.945 8.29228 200.977 9.39286 203.211 10.2733C205.738 11.2679 209.056 12.7191 210.808 13.5343C213.058 14.5371 215.699 15.8823 218.145 17.1785C219.555 17.9041 220.957 18.6623 222.335 19.4449L222.783 19.7221C228.049 22.9831 234.595 26.9697 239.242 30.6301C242.886 33.4998 247.1 37.038 249.986 39.6468C252.513 41.9377 255.635 45.0356 257.763 47.3754C260.803 50.7179 264.284 54.7779 266.607 57.7291C268.499 60.1259 271.083 63.713 273.186 66.868C275.289 70.0231 277.865 74.3194 279.928 78.0533C281.346 80.6295 282.936 83.972 284.338 86.9151L285.006 88.3254C286.694 91.8473 288.528 96.7877 289.759 100.31C290.574 102.56 291.389 105.323 292.123 107.997C292.481 109.228 292.824 110.443 293.15 111.487C294.369 115.645 295.276 119.887 295.864 124.18C296.003 125.281 296.174 126.487 296.353 127.743C296.753 130.613 297.169 133.572 297.372 136.042C297.698 140.012 297.927 145.328 297.935 149.265C297.801 157.312 297.136 165.34 295.946 173.299C295.252 178.094 294.23 182.837 292.889 187.493C292.628 188.357 292.343 189.302 292.074 190.281C291.259 193.053 290.321 196.191 289.449 198.637C288.075 202.647 286.486 206.579 284.688 210.417L283.653 212.725C282.373 215.358 280.922 218.342 279.65 220.641C277.727 224.097 275.077 228.451 273.064 231.467C268.62 238.131 263.648 244.426 258.195 250.291C257.16 251.392 253.54 255.183 250.524 257.971C247.32 260.906 243.416 264.24 240.571 266.466C238.345 268.194 235.027 270.673 232.378 272.417C228.816 274.765 223.998 277.659 220.68 279.575C215.207 282.567 209.558 285.227 203.765 287.54C200.765 288.681 196.339 290.288 192.948 291.339C189.883 292.285 185.57 293.443 182.22 294.217C171.345 296.728 160.22 297.997 149.058 298ZM75.9609 278.067C79.3683 280.04 83.9823 282.404 87.4549 283.945C92.3666 286.2 97.3984 288.184 102.528 289.888C102.585 289.888 108.234 291.812 114.087 293.198C116.215 293.703 121.179 294.877 127.505 295.807C145.687 298.499 164.214 297.755 182.122 293.614C185.456 292.847 189.744 291.698 192.793 290.752C196.176 289.701 200.586 288.111 203.586 286.969C209.332 284.665 214.937 282.021 220.37 279.053C223.688 277.129 228.522 274.252 232.044 271.912C234.677 270.175 237.978 267.705 240.196 265.977C243.032 263.767 246.929 260.441 250.124 257.514C252.146 255.664 255.016 252.802 257.755 249.876C263.185 244.032 268.139 237.761 272.566 231.125C274.572 228.108 277.205 223.788 279.088 220.331C280.36 218.048 281.802 215.072 283.074 212.447L284.199 210.14C285.982 206.319 287.56 202.406 288.927 198.417C289.799 195.971 290.729 192.857 291.544 190.101C291.837 189.123 292.115 188.177 292.359 187.305C293.691 182.681 294.706 177.971 295.4 173.209C296.586 165.28 297.248 157.282 297.381 149.265C297.381 145.328 297.152 140.037 296.826 136.083C296.622 133.637 296.207 130.678 295.807 127.824C295.628 126.561 295.457 125.379 295.318 124.245C294.731 119.991 293.829 115.787 292.62 111.666C292.294 110.59 291.951 109.4 291.593 108.169C290.827 105.503 290.028 102.747 289.245 100.513C288.006 97.0079 286.188 92.0919 284.517 88.5945L283.84 87.1759C282.446 84.241 280.857 80.9148 279.447 78.3468C277.392 74.6211 274.759 70.2513 272.729 67.2104C270.7 64.1696 268.075 60.4928 266.208 58.1122C263.885 55.1692 260.42 51.1174 257.388 47.783C255.276 45.4677 252.171 42.3779 249.66 40.1034C246.774 37.5027 242.576 33.9727 238.948 31.1356C234.318 27.4751 227.788 23.4641 222.514 20.252L222.082 19.983C220.859 19.3145 219.425 18.5318 217.917 17.7329C197.284 7.13462 173.734 3.27848 149.441 6.51503H149.392H149.286L149.205 5.91174C166.679 3.43918 184.485 4.9043 201.32 10.2C199.412 9.48254 197.284 8.72435 195.613 8.16183C194.122 7.66453 191.301 6.7596 189.092 6.16447C186.402 5.4389 182.497 4.53397 179.138 3.71872C179.09 3.71872 173.97 2.58552 166.951 1.72135C156.986 0.51505 146.924 0.326571 136.92 1.15883C132.469 1.50124 127.089 2.25126 124.864 2.65889C121.513 3.26218 117.201 4.17526 114.527 4.77039C113.255 5.05573 111.503 5.51227 109.139 6.17262C107.614 6.59656 102.316 8.11292 98.2072 9.6782L97.5713 9.91462C95.729 10.6157 93.4302 11.4881 91.702 12.2218C89.4684 13.1756 86.5664 14.5289 84.0149 15.7274C81.6753 16.8279 78.6021 18.4421 76.3685 19.7547C72.7572 21.8744 68.1188 24.7766 64.8255 26.9778C62.4615 28.6083 59.1926 30.997 56.6737 33.027C53.4129 35.701 49.5408 39.0517 46.8915 41.579C41.7101 46.6741 36.8117 52.0492 32.2182 57.6802C29.5244 61.068 27.0023 64.5889 24.6615 68.2295C22.9251 70.8546 20.5856 74.7515 18.8737 77.8902C17.1618 81.0289 14.8467 85.684 13.2163 89.3037C12.2381 91.4968 11.2028 94.1952 10.2001 96.8448C9.77625 97.9617 9.38496 99.0378 8.98552 100.016C7.52757 104.021 6.29205 108.104 5.2846 112.245C4.67321 114.577 4.10258 117.43 3.54826 120.194C3.29555 121.449 3.051 122.639 2.82275 123.764C2.25212 126.438 1.89343 129.887 1.58367 132.928C1.44508 134.24 1.31466 135.512 1.17607 136.662C0.360892 143.355 0.532085 152.314 0.964132 158.478C1.65524 166.381 2.79013 174.239 4.36344 182.014C5.21208 186.212 6.34785 190.347 7.76275 194.39C8.14588 195.433 8.57793 196.607 8.97737 197.814C9.89038 200.406 10.836 203.08 11.7408 205.257C13.1103 208.518 15.2461 213.336 17.1455 216.915C18.1074 218.741 20.5774 223.347 22.7458 226.796C24.4251 229.486 26.7239 232.772 28.7537 235.666L30.1558 237.671C32.8986 241.522 35.9115 245.172 39.1717 248.596C43.4351 253.031 49.7039 259.398 54.8069 263.482C58.2307 266.221 63.2196 269.906 67.4993 272.849C69.8633 274.48 73.0996 276.379 75.9527 278.034L75.9609 278.067Z" fill="#F86917" fill-opacity="0.21"/>
<path d="M148.708 292.138L148.618 292.089C112.465 271.537 83.1181 190.68 83.2893 111.846V111.56H83.5583C157.202 101.655 246.505 110.297 282.642 130.825L282.797 130.914V131.094C282.65 209.961 222.514 282.208 148.814 292.122L148.708 292.138ZM83.9333 112.115C83.8599 190.599 112.954 270.991 148.863 291.47C222.229 281.548 281.982 209.708 282.21 131.224C246.097 110.867 157.3 102.291 83.9333 112.115Z" fill="#F86917" fill-opacity="0.21"/>
<path d="M215.993 263.515C197.847 253.202 152.93 248.84 115.88 253.846L115.799 253.243C152.963 248.245 198.05 252.615 216.294 262.977L215.993 263.515Z" fill="#F86917" fill-opacity="0.21"/>
<path d="M263.958 205.811C232.859 188.145 155.922 180.71 92.4519 189.245L92.3704 188.642C155.955 180.09 233.063 187.558 264.26 205.281L263.958 205.811Z" fill="#F86917" fill-opacity="0.21"/>
<path d="M148.887 292.106L148.651 291.543C193.877 272.686 230.788 193.387 230.935 114.764H231.546C231.4 193.615 194.317 273.167 148.887 292.106Z" fill="#F86917" fill-opacity="0.21"/>
<path d="M149.066 291.902L148.471 291.747C154.455 269.067 159.435 186.58 159.582 107.859H160.193C160.047 186.62 155.058 269.181 149.066 291.902Z" fill="#F86917" fill-opacity="0.21"/>
<path d="M132.029 293.263C104.052 293.263 77.9335 283.643 57.1383 265.422C43.8919 253.751 33.42 239.267 26.4874 223.029C19.0285 205.909 15.2542 187.069 15.2705 167.111C4.08622 160.712 -1.09834 153.586 0.271169 146.494C3.23028 131.46 35.112 118.082 83.5583 111.56L83.9007 111.511V111.862C83.754 190.501 112.921 271.121 148.92 291.576L149.735 292.024L148.838 292.138C143.266 292.887 137.651 293.263 132.029 293.263ZM83.2811 112.196C35.2995 118.718 3.73569 131.884 0.874401 146.649C-0.454345 153.497 4.6813 160.434 15.727 166.704L15.8819 166.793V166.997C15.8411 186.938 19.5991 205.73 27.0417 222.85C33.9501 238.99 44.3711 253.387 57.5458 264.99C82.091 286.497 114.128 295.97 147.835 291.657C112.082 270.404 83.2322 190.354 83.2893 112.196H83.2811Z" fill="#F86917" fill-opacity="0.21"/>
<path d="M81.3491 281.613C75.5939 278.352 72.9283 274.676 73.6375 271.015C75.1211 263.352 91.2617 256.544 115.766 253.251L115.848 253.854C91.6123 257.115 75.6755 263.735 74.2733 271.137C73.613 274.521 76.1809 277.961 81.6834 281.092L81.3491 281.613Z" fill="#F86917" fill-opacity="0.21"/>
<path d="M33.5468 236.799C23.7646 231.255 19.2485 225.059 20.4468 218.863C22.9739 205.819 50.527 194.251 92.3703 188.626L92.4518 189.229C50.8775 194.822 23.52 206.219 21.0419 218.978C19.9006 224.872 24.3026 230.848 33.8484 236.253L33.5468 236.799Z" fill="#F86917" fill-opacity="0.21"/>
<path d="M148.716 292.122C80.2405 279.388 24.7266 204.89 24.8733 125.982H25.4847C25.338 204.58 80.6644 278.841 148.822 291.519L148.716 292.122Z" fill="#F86917" fill-opacity="0.21"/>
<path d="M148.765 292.13C66.8145 290.32 0.320062 224.66 0.466795 145.752H1.07818C0.931449 224.317 67.1894 289.709 148.773 291.51L148.765 292.13Z" fill="#F86917" fill-opacity="0.21"/>
<path d="M165.272 296.883C159.432 296.767 153.723 295.132 148.708 292.138C114.535 296.712 82.0257 287.247 57.1464 265.422C43.9001 253.751 33.4281 239.267 26.4955 223.029C19.0122 205.836 15.2379 186.954 15.2786 166.932V166.41L15.7351 166.663C51.7662 187.142 140.906 195.751 214.428 185.862L214.778 185.813V186.164C214.68 239.4 201.108 280.317 179.367 292.962C175.104 295.508 170.237 296.862 165.272 296.883ZM148.83 291.502L148.92 291.559C159.517 297.592 169.69 297.902 179.081 292.456C200.594 279.966 214.036 239.4 214.191 186.555C140.923 196.338 52.2798 187.802 15.9145 167.494C15.9145 187.24 19.6969 205.852 27.0743 222.826C33.9827 238.966 44.4037 253.362 57.5784 264.966C82.3437 286.668 114.723 296.1 148.757 291.519L148.83 291.502Z" fill="#F86917" fill-opacity="0.21"/>
<path d="M149.409 293.418C121.464 293.418 94.4736 289.073 81.3491 281.613L81.6507 281.083C99.7967 291.396 144.713 295.758 181.763 290.744L181.845 291.355C171.09 292.756 160.254 293.445 149.409 293.418Z" fill="#F86917" fill-opacity="0.21"/>
<path d="M149.914 256.985C102.12 256.985 55.9725 249.541 33.5469 236.799L33.8485 236.269C64.9477 253.944 141.876 261.371 205.355 252.835L205.428 253.438C187.022 255.843 168.477 257.028 149.914 256.985Z" fill="#F86917" fill-opacity="0.21"/>
<path d="M129.584 296.19C120.894 296.166 112.412 293.527 105.242 288.616C80.8928 272.352 66.4151 232.975 66.5048 183.286H67.1162C67.0265 232.772 81.4063 271.953 105.585 288.103C118.473 296.72 133.366 297.886 148.634 291.543L148.871 292.106C142.776 294.732 136.22 296.12 129.584 296.19Z" fill="#F86917" fill-opacity="0.21"/>
<path d="M145.781 297.959H145.643C140.14 297.242 137.776 243.337 137.874 190.191H138.485C138.355 259.895 142.031 296.859 145.724 297.34C146.115 297.413 147.11 296.932 148.471 291.747L149.066 291.902C147.982 296.019 146.931 297.959 145.781 297.959Z" fill="#F86917" fill-opacity="0.21"/>
<path d="M165.272 296.883C159.843 296.883 154.235 295.253 148.618 292.089L147.803 291.641L148.708 291.519C164.711 289.308 180.2 284.293 194.464 276.706C206.822 257.319 214.069 225.068 214.142 186.213V185.944H214.403C241.133 182.348 262.792 176.682 277.27 169.818C280.478 157.167 282.121 144.17 282.161 131.118V130.596L282.618 130.849C293.908 137.265 299.141 144.431 297.764 151.556C296.467 158.25 289.449 164.6 277.8 170.201C266.143 216.124 234.962 256.047 194.879 277.219C190.347 284.296 185.097 289.66 179.342 293.027C175.081 295.546 170.222 296.877 165.272 296.883ZM149.718 291.992C160.055 297.6 169.927 297.755 179.065 292.448C184.535 289.277 189.483 284.296 193.82 277.733C180.03 284.945 165.119 289.769 149.718 292V291.992ZM214.778 186.465C214.672 224.717 207.613 256.577 195.556 276.143C234.897 255.004 265.491 215.692 277.074 170.495C262.588 177.302 241.141 182.911 214.778 186.474V186.465ZM282.789 131.599C282.709 144.354 281.103 157.054 278.004 169.427C289.204 164.005 295.938 157.85 297.185 151.393C298.497 144.651 293.517 137.811 282.789 131.607V131.599Z" fill="#F86917" fill-opacity="0.21"/>
<path d="M181.845 291.356L181.763 290.744C205.999 287.483 221.943 280.872 223.378 273.469C224.03 270.086 221.463 266.645 215.96 263.515L216.262 262.977C222.017 266.238 224.683 269.915 223.973 273.575C222.514 281.247 206.349 288.054 181.845 291.356Z" fill="#F86917" fill-opacity="0.21"/>
<path d="M205.395 253.414L205.322 252.81C246.896 247.218 274.246 235.821 276.724 223.062C277.865 217.168 273.463 211.192 263.925 205.787L264.227 205.257C274.009 210.809 278.517 217.005 277.327 223.192C274.833 236.228 247.271 247.813 205.395 253.414Z" fill="#F86917" fill-opacity="0.21"/>
<path d="M168.476 293.972C161.846 293.964 155.232 293.344 148.716 292.122L148.822 291.519C178.878 297.111 207.882 289.888 230.495 271.137C257.168 249.003 272.509 212.912 272.591 172.101H273.202C273.121 213.091 257.714 249.362 230.886 271.561C213.376 286.159 191.271 294.096 168.476 293.972Z" fill="#F86917" fill-opacity="0.21"/>
<path d="M152.262 292.163C151.096 292.163 149.93 292.163 148.765 292.163V291.551C189.32 292.44 227.161 277.749 255.399 250.169C282.145 224.081 296.916 189.31 296.973 152.339H297.584C297.519 189.482 282.683 224.383 255.822 250.617C228.294 277.472 191.627 292.163 152.262 292.163Z" fill="#F86917" fill-opacity="0.21"/>
<path d="M282.789 131.599L282.332 131.346C246.301 110.867 157.169 102.258 83.6398 112.147L83.2893 112.196V111.846C83.3871 58.6015 96.9599 17.6841 118.709 5.04769C128.116 -0.414488 138.714 -0.120998 149.36 5.86294C183.524 1.29754 216.042 10.7544 240.921 32.5787C254.165 44.2527 264.636 58.7358 271.572 74.9717C279.055 92.1654 282.83 111.038 282.797 131.069L282.789 131.599ZM147.86 107.435C202.901 107.435 256.043 115.954 282.186 130.556C282.186 110.802 278.395 92.1898 271.018 75.2245C264.109 59.0816 253.688 44.6827 240.513 33.076C215.748 11.374 183.385 1.94974 149.343 6.5233H149.238L149.148 6.47438C138.55 0.433373 128.377 0.131729 118.986 5.56945C97.5061 18.0754 84.0637 58.6423 83.9333 111.495C105.13 108.743 126.485 107.387 147.86 107.435Z" fill="#F86917" fill-opacity="0.21"/>
<path d="M264.227 61.7809C233.112 44.1063 156.183 36.6793 92.7209 45.215L92.6394 44.6036C156.224 36.0516 233.324 43.5193 264.529 61.2428L264.227 61.7809Z" fill="#F86917" fill-opacity="0.21"/>
<path d="M216.417 16.9911C198.271 6.67816 153.362 2.31657 116.304 7.33037L116.223 6.72708C153.387 1.72959 198.475 6.09118 216.718 16.4612L216.417 16.9911Z" fill="#F86917" fill-opacity="0.21"/>
<path d="M231.546 114.764H230.935C231.025 65.2783 216.645 26.0892 192.467 9.93907C179.579 1.32187 164.693 0.15606 149.417 6.50686L149.18 5.93619C164.669 -0.512443 179.733 0.70228 192.809 9.42546C217.158 25.6979 231.636 65.0908 231.546 114.764Z" fill="#F86917" fill-opacity="0.21"/>
<path d="M160.194 107.859H159.582C159.745 38.1876 156.036 1.18333 152.343 0.686027C151.977 0.62896 150.966 1.0855 149.596 6.27865L149.001 6.12375C150.134 1.84368 151.235 -0.0721559 152.425 0.0745892C157.927 0.808315 160.291 54.7371 160.194 107.859Z" fill="#F86917" fill-opacity="0.21"/>
<path d="M15.8901 167.494L15.4336 167.242C4.13522 160.826 -1.09825 153.66 0.27941 146.534C1.5837 139.841 8.59426 133.49 20.2432 127.89C31.9003 81.9584 63.081 42.0355 103.172 20.8635C107.704 13.7871 112.954 8.42273 118.709 5.05575C128.141 -0.422738 138.771 -0.112944 149.45 5.95252L150.265 6.40091L149.368 6.5232C133.353 8.73044 117.853 13.7449 103.579 21.3363C91.2211 40.723 84.0149 72.9743 83.9008 111.829V112.098H83.6399C56.9101 115.693 35.2589 121.359 20.7812 128.224C17.5729 140.875 15.9303 153.872 15.8901 166.924V167.494ZM20.0639 128.615C8.87143 134.037 2.12987 140.192 0.882643 146.648C-0.4298 153.399 4.55097 160.239 15.2788 166.443C15.3584 153.688 16.9649 140.988 20.0639 128.615ZM102.52 21.8825C63.1707 43.079 32.5769 82.3497 20.9606 127.555C35.479 120.748 56.9264 115.139 83.2894 111.576C83.3954 73.3167 90.4548 41.4485 102.52 21.8825ZM132.844 1.72137C127.962 1.73869 123.175 3.07073 118.986 5.57751C113.516 8.75699 108.568 13.73 104.231 20.252C118.027 13.0655 132.937 8.26129 148.333 6.0422C143.029 3.16708 137.866 1.72681 132.844 1.72137Z" fill="#F86917" fill-opacity="0.21"/>
<path d="M33.8077 92.8094C24.0255 87.2575 19.5175 81.0616 20.7158 74.8739C23.2348 61.8299 50.7961 50.2615 92.6394 44.6362L92.7209 45.2477C51.1466 50.8321 23.7891 62.2375 21.3109 74.9962C20.1697 80.8904 24.5717 86.8581 34.1093 92.2632L33.8077 92.8094Z" fill="#F86917" fill-opacity="0.21"/>
<path d="M81.8057 35.0651C76.0505 31.8041 73.3848 28.1273 74.094 24.4668C75.5777 16.8035 91.7264 9.99613 116.223 6.70251L116.304 7.3058C92.0688 10.5668 76.132 17.1866 74.7299 24.581C74.0696 27.9643 76.6374 31.4128 82.1399 34.5433L81.8057 35.0651Z" fill="#F86917" fill-opacity="0.21"/>
<path d="M25.4847 125.982H24.8733C24.9467 84.983 40.3618 48.7125 67.1894 26.4725C89.9411 7.59125 119.125 0.294761 149.352 5.91999L149.246 6.52328C119.19 0.930661 90.1857 8.15378 67.5725 26.9046C40.8998 49.0712 25.558 85.1705 25.4847 125.982Z" fill="#F86917" fill-opacity="0.21"/>
<path d="M1.07818 145.801H0.466797C0.540163 108.658 15.3683 73.7489 42.2367 47.5141C70.5969 19.7956 108.617 5.06397 149.303 5.93629V6.54773C108.772 5.65095 70.9148 20.3499 42.6769 47.9299C15.9145 74.0586 1.15155 108.772 1.07818 145.801Z" fill="#F86917" fill-opacity="0.21"/>
<path d="M150.208 190.639C94.8487 190.639 41.4053 181.998 15.4581 167.242L15.3032 167.152V166.997C15.4581 88.0809 75.5289 15.8334 149.262 5.91992H149.36L149.45 5.96884C185.619 26.5213 214.925 107.386 214.778 186.221V186.49H214.509C193.19 189.29 171.71 190.677 150.208 190.639ZM15.8902 166.793C51.9783 187.175 140.792 195.759 214.167 185.935C214.248 107.451 185.155 27.0512 149.238 6.58028C75.9038 16.4611 16.1184 88.301 15.8902 166.793Z" fill="#F86917" fill-opacity="0.21"/>
<path d="M150.183 112.946C102.389 112.946 56.2417 105.511 33.8079 92.7685L34.1095 92.2305C65.1842 109.93 142.146 117.34 205.616 108.796L205.697 109.408C187.291 111.81 168.746 112.992 150.183 112.946Z" fill="#F86917" fill-opacity="0.21"/>
<path d="M149.865 46.8699C121.921 46.8699 94.9301 42.5165 81.8057 35.0651L82.1073 34.5352C100.261 44.8399 145.17 49.2097 182.228 44.1959L182.309 44.7992C171.552 46.206 160.714 46.8977 149.865 46.8699Z" fill="#F86917" fill-opacity="0.21"/>
<path d="M67.1324 183.302H66.521C66.6677 104.451 103.75 24.8908 149.18 5.95251L149.417 6.52319C104.191 25.3555 67.2791 104.655 67.1324 183.302Z" fill="#F86917" fill-opacity="0.21"/>
<path d="M138.485 190.191H137.874C138.021 111.43 143.018 28.8692 149.001 6.14819L149.596 6.30309C143.613 28.9752 138.632 111.47 138.485 190.191Z" fill="#F86917" fill-opacity="0.21"/>
<path d="M214.167 186.563V186.213C214.314 107.565 185.146 26.9453 149.148 6.49884L148.333 6.05045L149.238 5.92816C183.475 1.33015 215.993 10.8197 240.897 32.6276C254.141 44.3017 264.612 58.7848 271.548 75.0207C279.006 92.1409 282.781 110.981 282.773 130.939C293.957 137.33 299.141 144.464 297.764 151.556C294.837 166.63 262.931 180.033 214.485 186.547L214.167 186.563ZM150.232 6.39286C185.986 27.5894 214.835 107.68 214.778 185.838C262.76 179.316 294.324 166.149 297.185 151.385C298.514 144.537 293.378 137.599 282.332 131.33L282.186 131.24V131.061C282.186 111.12 278.46 92.3285 271.018 75.2082C264.109 59.0653 253.688 44.6664 240.514 33.0597C215.993 11.5697 183.94 2.11279 150.232 6.39286Z" fill="#F86917" fill-opacity="0.21"/>
<path d="M205.697 109.408L205.615 108.796C247.19 103.212 274.547 91.8065 277.025 79.0479C278.167 73.1618 273.765 67.186 264.227 61.7809L264.529 61.2428C274.311 66.7947 278.819 72.9906 277.621 79.1783C275.102 92.1897 247.54 103.783 205.697 109.408Z" fill="#F86917" fill-opacity="0.21"/>
<path d="M182.309 44.7992L182.228 44.1959C206.455 40.9349 222.4 34.3151 223.802 26.9126C224.454 23.5293 221.895 20.0889 216.384 16.9584L216.686 16.4285C222.441 19.6895 225.115 23.3663 224.397 27.0267C222.946 34.6982 206.806 41.5056 182.309 44.7992Z" fill="#F86917" fill-opacity="0.21"/>
<path d="M273.202 172.068H272.591C272.738 93.4697 217.403 19.2004 149.246 6.52321L149.352 5.91992C217.786 18.6215 273.349 93.1844 273.202 172.068Z" fill="#F86917" fill-opacity="0.21"/>
<path d="M297.601 152.323H296.989C297.136 73.7487 230.878 8.35748 149.295 6.55577V5.94434C231.22 7.72158 297.747 73.39 297.601 152.323Z" fill="#F86917" fill-opacity="0.21"/>
<path d="M148.52 297.992H147.892L145.667 297.951H144.672C143.768 297.951 142.496 297.886 141.412 297.821C135.266 297.504 129.146 296.81 123.086 295.742C112.024 293.787 101.221 290.576 90.8867 286.171C85.6801 283.916 80.5922 281.396 75.6428 278.621C71.0852 276.084 66.686 273.271 62.4695 270.2C61.7521 269.654 60.9777 269.075 60.1707 268.48C57.4398 266.442 54.3421 264.134 52.0922 262.064C51.3423 261.379 50.5189 260.629 49.6467 259.854C47.7147 258.118 45.7093 256.316 44.1279 254.726C41.3563 251.938 37.851 248.155 35.4136 245.318C31.9654 241.307 27.6531 235.372 22.2158 227.187C19.938 223.566 17.8431 219.833 15.9389 216.002C13.9828 212.255 12.2383 208.401 10.7136 204.458C8.02217 197.16 5.6987 189.732 3.75193 182.202C2.27645 175.965 1.24117 167.576 0.491206 160.964C0.14883 157.866 0.0917663 153.945 0.0510072 150.488V148.809C-0.0314838 144.382 0.172739 139.954 0.662394 135.553C0.809126 134.436 0.955855 133.197 1.11074 131.909C1.44496 129.064 1.79549 126.121 2.21939 123.699C2.91229 119.753 4.02094 114.658 4.98285 111.022C5.91216 107.508 7.28982 103.016 8.41478 99.8532C9.36854 97.1547 10.7543 93.8203 11.9771 90.8854L13.2162 87.869C14.9624 83.7847 16.9748 79.8195 19.2404 75.9989C22.4033 70.659 27.3107 63.3299 31.7371 57.3215C34.4857 53.6435 37.4816 50.157 40.7041 46.8863L42.9214 44.6525C44.6985 42.8508 46.7202 40.7964 48.4321 39.2719C51.6194 36.4348 56.217 32.6357 60.1462 29.5867C62.9505 27.41 66.8959 24.8256 68.4611 23.8147C70.7599 22.331 73.8494 20.5537 76.3357 19.0863L77.0694 18.6623C82.0323 15.8349 87.1858 13.3559 92.4926 11.2436C97.0414 9.47446 100.49 8.21083 103.017 7.38742C106.326 6.31945 110.818 5.09657 113.916 4.30578C117.812 3.31932 122.883 2.40624 124.317 2.14536C127.578 1.57469 130.268 1.25674 133.105 0.930636C134.14 0.808349 138.143 0.433335 140.303 0.327352C143.254 0.180607 145.797 0.0501661 150.142 0.0746236C157.014 0.146299 163.872 0.691088 170.669 1.70513C173.97 2.17797 177.801 2.9117 179.57 3.28671C182.106 3.83293 185.839 4.75417 189.581 5.73247C191.7 6.30314 194.668 7.23252 196.958 8.03962C200.357 9.24619 204.344 10.7707 207.132 11.9365C212.023 13.9747 218.234 17.2927 222.367 19.4857C223.313 20.0238 224.25 20.5782 225.18 21.1162C228.082 22.8364 231.449 24.9072 233.951 26.7659C234.685 27.3122 235.5 27.9073 236.348 28.5187C238.288 29.9373 240.489 31.5433 242.168 32.9129C245.549 35.5804 248.793 38.4184 251.885 41.416C252.611 42.166 253.418 42.9813 254.266 43.8617C256.116 45.7205 258.032 47.6364 259.532 49.3158C262.336 52.4545 265.531 56.3106 267.683 59.0988C269.835 61.8869 272.444 65.6208 274.164 68.3274C275.11 69.803 278.379 74.9717 280.58 79.2273C284.376 86.3343 287.585 93.7397 290.174 101.37C292.881 109.318 295.065 119.957 295.881 124.156C296.639 128.061 297.169 133.36 297.511 137.118C297.731 139.809 297.821 143.2 297.894 146.2C297.894 147.276 297.951 148.312 297.984 149.257C298.07 154.234 297.814 159.211 297.217 164.152C296.712 168.334 296.158 172.655 295.53 175.973C294.796 179.895 293.631 184.982 292.628 188.618C291.674 192.107 290.248 196.566 289.09 199.73C288.071 202.485 286.645 205.885 285.332 208.885L284.15 211.665C282.592 215.15 280.848 218.549 278.925 221.847C277.376 224.562 275.248 227.888 273.373 230.815L271.996 233.033C269.383 236.945 266.541 240.699 263.485 244.275C258.823 249.827 253.781 255.049 248.396 259.903C245.135 262.74 240.473 266.523 236.462 269.556C234.236 271.235 231.18 273.216 228.726 274.806L228.147 275.181C222.752 278.556 217.154 281.597 211.387 284.287C209.357 285.184 204.189 287.442 200.17 288.926C197.162 290.035 192.833 291.437 189.328 292.415C184.178 293.861 178.957 295.04 173.685 295.945C169.739 296.614 167.514 296.867 164.93 297.16C163.422 297.331 159.729 297.657 157.732 297.755C154.895 297.902 153.061 297.992 151.104 298H148.52V297.992ZM149.148 0.686062C145.431 0.686062 143.075 0.800198 140.376 0.938791C138.224 1.04477 134.246 1.41164 133.219 1.53392C130.382 1.86818 127.708 2.17797 124.464 2.74865C120.592 3.43346 116.72 4.2324 114.111 4.90091C111.022 5.71616 106.546 6.90643 103.245 7.97441C100.726 8.78966 97.2941 10.0451 92.7535 11.8142C87.477 13.8982 82.3532 16.35 77.4199 19.1515L76.6863 19.5754C74.2407 21.0184 71.1186 22.8364 68.8279 24.2876C67.2709 25.2903 63.3499 27.8665 60.562 29.9943C56.6409 33.0352 52.0596 36.8261 48.8804 39.6551C47.1848 41.1633 45.1713 43.2095 43.3942 45.0112L41.1769 47.245C37.9654 50.4911 34.9828 53.9561 32.2507 57.615C27.8243 63.6071 22.9332 70.9118 19.7784 76.2435C17.5372 80.0516 15.5493 84.0033 13.8276 88.0728C13.4444 89.0103 13.0124 90.0294 12.5804 91.0892C11.3657 94.0241 9.97993 97.3503 9.02616 100.057C7.90936 103.212 6.58061 107.671 5.61055 111.177C4.64048 114.683 3.55629 119.876 2.86339 123.805C2.43949 126.21 2.08897 129.145 1.75474 131.958C1.60801 133.246 1.46127 134.485 1.31454 135.61C0.824568 139.981 0.620344 144.379 0.703155 148.776V150.456C0.752066 153.896 0.809125 157.793 1.1515 160.867C1.88517 167.47 2.91229 175.835 4.41223 182.063C6.35083 189.573 8.66892 196.979 11.3576 204.254C12.8729 208.174 14.6065 212.007 16.5503 215.733C18.4405 219.542 20.5219 223.254 22.7864 226.853C26.8173 233.128 31.2104 239.163 35.9435 244.927C38.389 247.756 41.8617 251.531 44.6252 254.311C46.1985 255.884 48.1875 257.678 50.1195 259.414C50.9836 260.189 51.8151 260.93 52.565 261.615C54.7986 263.67 57.8882 265.969 60.6027 267.999C61.4179 268.594 62.1842 269.173 62.9015 269.719C67.0955 272.771 71.4701 275.567 76.0015 278.091C80.9326 280.856 86.0015 283.368 91.1883 285.616C107.152 292.413 124.19 296.34 141.518 297.217C142.569 297.282 143.833 297.331 144.738 297.348H145.724L147.941 297.388C148.61 297.388 149.425 297.388 150.183 297.388H151.153C153.093 297.388 154.927 297.291 157.675 297.152C159.713 297.046 163.381 296.72 164.889 296.549C167.457 296.255 169.682 296.003 173.603 295.342C178.856 294.444 184.059 293.271 189.19 291.828C192.654 290.858 196.991 289.456 199.983 288.355C203.993 286.88 209.137 284.63 211.167 283.725C216.902 281.049 222.469 278.027 227.837 274.676L228.416 274.292C230.862 272.711 233.91 270.73 236.12 269.067C240.122 266.042 244.793 262.267 248.021 259.447C253.382 254.609 258.402 249.406 263.045 243.875C266.085 240.321 268.911 236.589 271.507 232.698L272.909 230.497C274.775 227.579 276.895 224.269 278.444 221.529C280.358 218.257 282.097 214.885 283.653 211.428L284.835 208.64C286.115 205.648 287.566 202.257 288.577 199.518C289.734 196.371 291.152 191.928 292.106 188.455C293.101 184.827 294.266 179.772 295 175.867C295.612 172.557 296.166 168.245 296.671 164.079C297.267 159.17 297.523 154.226 297.438 149.282C297.438 148.328 297.38 147.293 297.348 146.208C297.274 143.225 297.193 139.841 296.973 137.167C296.663 133.425 296.158 128.151 295.342 124.278C294.527 120.08 292.318 109.481 289.636 101.565C287.061 93.9559 283.868 86.5696 280.09 79.48C277.898 75.2489 274.645 70.1047 273.699 68.6291C271.988 65.955 269.452 62.3516 267.243 59.4493C265.034 56.547 261.928 52.7969 259.091 49.6663C257.6 48.0358 255.692 46.0874 253.85 44.2368C253.035 43.4215 252.219 42.6063 251.461 41.791C248.387 38.8053 245.16 35.9808 241.793 33.3287L241.589 33.1575C267.276 55.9845 282.259 90.1761 282.756 128.778C282.756 129.43 282.756 130.091 282.756 130.751V131.037C282.65 209.961 222.514 282.208 148.814 292.122L148.732 291.519C222.172 281.638 282.022 209.667 282.185 131.077V130.792C282.185 83.9721 260.852 43.4378 224.903 21.6217L222.107 19.9912C217.99 17.8063 211.754 14.4964 206.928 12.4664C204.156 11.3088 200.178 9.78426 196.787 8.58584C194.513 7.77059 191.562 6.85751 189.45 6.29499C185.725 5.29223 182 4.37099 179.473 3.84923C177.712 3.46606 173.905 2.74049 170.62 2.26765C163.849 1.27644 157.018 0.748018 150.175 0.686062H149.148Z" fill="#F86917" fill-opacity="0.21"/>
</svg>
